<svg xmlns="http://www.w3.org/2000/svg" viewBox="0 0 500 500"><g id="freepik--background-complete--inject-58"><g id="freepik--xsrjP0--inject-58"><path d="M46.09,153.35c-.76-.48-1.42-1.17-2.44-1.08-.39,0-.31-.28-.31-.49,0-3.84,0-7.67,0-11.51,0-.28,0-.51.32-.66,2.93-1.48,4.2-4.38,6-6.87a11.46,11.46,0,0,0,2.12-8.7c-.12-.86.28-1.25,1.06-1.42a1.9,1.9,0,0,1,2.19.69,15.48,15.48,0,0,1,1.67,5,18,18,0,0,1-.53,4.31c-.14,1.05-.38,2.09-.58,3.16.25.19.55.09.83.09h9.72c1.36,0,2,.39,2.22,1.3a2.59,2.59,0,0,1-1.41,2.8c-.24.13-.68,0-.71.4s.42.34.65.5c1.17.8,1,2.46-.41,3.42-.32.23-1,.12-1,.6s.58.38.85.65c1,.94.48,2.68-.94,3.39a4,4,0,0,0-.57.22c-.16.11-.31.23,0,.45,1.4,1,1.37,2.4,0,3.41l-.42.31a2.78,2.78,0,0,1-1.71.37H47.43A1.79,1.79,0,0,1,46.09,153.35Z" style="fill:#ebebeb;fill-rule:evenodd"></path><path d="M31.65,146.59c0-2.44,0-4.88,0-7.31,0-.5.05-.74.65-.73q4.47,0,8.92,0c.58,0,.67.19.67.71q0,7.35,0,14.71c0,.62-.17.8-.79.79-2.89,0-5.77,0-8.65,0-.72,0-.81-.24-.81-.87C31.67,151.46,31.65,149,31.65,146.59Z" style="fill:#ebebeb;fill-rule:evenodd"></path></g><g id="freepik--xsrjp0--inject-58"><path d="M463,248.35c-.56-.36-1.06-.88-1.82-.81-.29,0-.23-.21-.23-.37V238.6c0-.21,0-.38.24-.49,2.18-1.1,3.13-3.27,4.46-5.12a8.6,8.6,0,0,0,1.59-6.49c-.1-.64.2-.93.78-1.06a1.46,1.46,0,0,1,1.64.51,11.66,11.66,0,0,1,1.24,3.75,13,13,0,0,1-.4,3.21c-.1.79-.28,1.56-.43,2.36.19.14.42.06.62.07H478c1,0,1.51.29,1.65,1a1.93,1.93,0,0,1-1.05,2.09c-.18.09-.51,0-.53.29s.32.26.48.38c.88.6.72,1.83-.3,2.55-.24.17-.71.09-.72.45s.43.28.63.48a1.62,1.62,0,0,1-.7,2.52,3.07,3.07,0,0,0-.42.17c-.12.08-.24.17,0,.33a1.43,1.43,0,0,1,0,2.55l-.32.22a2,2,0,0,1-1.27.28H464A1.38,1.38,0,0,1,463,248.35Z" style="fill:#ebebeb;fill-rule:evenodd"></path><path d="M452.28,243.31c0-1.82,0-3.64,0-5.45,0-.37,0-.55.49-.55,2.21,0,4.43,0,6.64,0,.44,0,.5.15.5.54q0,5.47,0,11c0,.46-.12.6-.59.59-2.15,0-4.29,0-6.44,0-.54,0-.61-.18-.6-.65C452.29,246.94,452.28,245.12,452.28,243.31Z" style="fill:#ebebeb;fill-rule:evenodd"></path></g><circle cx="386.67" cy="58.12" r="5.62" style="fill:#ebebeb"></circle><path d="M372,70.6A5.62,5.62,0,1,1,366.36,65,5.62,5.62,0,0,1,372,70.6Z" style="fill:#ebebeb"></path><path d="M392.29,83.07a5.62,5.62,0,1,1-5.62-5.62A5.62,5.62,0,0,1,392.29,83.07Z" style="fill:#ebebeb"></path><polygon points="386.23 84.39 364.84 70.58 386.25 57.43 387.09 58.81 367.87 70.61 387.11 83.03 386.23 84.39" style="fill:#ebebeb"></polygon><g id="freepik--aiZGp2--inject-58"><path d="M402.43,121.13a24.73,24.73,0,0,1,1.65,7.54h6.67v-.19c0-.17,0-.34-.05-.51a18,18,0,0,0-.44-2.63,20.6,20.6,0,0,0-1.49-4.11.14.14,0,0,0-.16-.1h-6.18Z" style="fill:#ebebeb"></path><path d="M402.63,138h6.13a.14.14,0,0,0,.15-.1,19.63,19.63,0,0,0,1.83-7s0-.06,0-.08v-.19h-6.56c-.12,0-.11,0-.12.12,0,.53-.07,1.07-.13,1.6a19.61,19.61,0,0,1-.41,2.53,22.36,22.36,0,0,1-.87,3Z" style="fill:#ebebeb"></path><path d="M376.84,139.91l.05.09a18,18,0,0,0,1.74,2.25,16.69,16.69,0,0,0,2.55,2.35,18,18,0,0,0,2.9,1.8,17.79,17.79,0,0,0,3.06,1.19,20.1,20.1,0,0,0,2.56.55l.25,0h.15l.14-.09-.16-.12a19.43,19.43,0,0,1-4.84-4.69,22.68,22.68,0,0,1-2-3.28.13.13,0,0,0-.15-.09h-6.27Z" style="fill:#ebebeb"></path><path d="M383,128.66h8.62v-7.52h-6.73a.12.12,0,0,0-.13.09,20.68,20.68,0,0,0-1.37,4.41A19.34,19.34,0,0,0,383,128Z" style="fill:#ebebeb"></path><path d="M383,130.67c0,.18,0,.36,0,.53,0,.42.07.84.13,1.26.08.58.17,1.15.28,1.72a19.78,19.78,0,0,0,1.12,3.68c0,.08.06.11.15.11h6.91v-7.3Z" style="fill:#ebebeb"></path><path d="M393.53,121.18v7.54h8.41l0-.57c-.05-.42-.08-.84-.15-1.26-.1-.64-.21-1.28-.35-1.91a19.39,19.39,0,0,0-1.21-3.71.14.14,0,0,0-.15-.09h-6.52Z" style="fill:#ebebeb"></path><path d="M393.52,130.77V138h6.72a.14.14,0,0,0,.15-.1,19.37,19.37,0,0,0,1.15-3.8c.12-.67.22-1.34.3-2,.06-.44.07-.89.1-1.33v-.05h-8.31C393.54,130.66,393.52,130.69,393.52,130.77Z" style="fill:#ebebeb"></path><path d="M373.84,128.72h7.06a24.5,24.5,0,0,1,1.64-7.59H376a.13.13,0,0,0-.15.09,18.34,18.34,0,0,0-1.63,4.72,21.58,21.58,0,0,0-.34,2.65Z" style="fill:#ebebeb"></path><path d="M373.83,130.62c0,.17,0,.33,0,.49a17.28,17.28,0,0,0,.23,1.9,18.41,18.41,0,0,0,1.3,4.24c.09.22.2.43.29.65,0,0,.05.07.11.07h6.56l-.24-.66a22.8,22.8,0,0,1-.87-3.44,22.06,22.06,0,0,1-.3-2.56c0-.2,0-.41,0-.61s0-.08-.07-.08h-7Z" style="fill:#ebebeb"></path><path d="M377,119.21v0h6.27a.15.15,0,0,0,.15-.09,21.41,21.41,0,0,1,3.06-4.54,17.89,17.89,0,0,1,2.35-2.17c.42-.32.86-.62,1.29-.94l.07,0-.08-.06a.93.93,0,0,1,0-.13A18.45,18.45,0,0,0,377,119.21Z" style="fill:#ebebeb"></path><path d="M394.73,148.09a.4.4,0,0,0,.17,0,15.65,15.65,0,0,0,2-.39,17.73,17.73,0,0,0,3.58-1.33,18.37,18.37,0,0,0,3.65-2.39,16.94,16.94,0,0,0,2.2-2.2,17.3,17.3,0,0,0,1.37-1.9s0,0,0,0H401.9c-.08,0-.11,0-.15.1a22,22,0,0,1-2.11,3.44,20.8,20.8,0,0,1-2.48,2.74,18.34,18.34,0,0,1-2.38,1.92Z" style="fill:#ebebeb"></path><path d="M394.8,111.44l.87.64a22.07,22.07,0,0,1,2.79,2.59,20.05,20.05,0,0,1,2.92,4.17l.15.29a.18.18,0,0,0,.09.06h5.93a18.34,18.34,0,0,0-12.68-7.89l0,.07Z" style="fill:#ebebeb"></path><path d="M385.54,139.92a19.93,19.93,0,0,0,2.85,3.84,17.92,17.92,0,0,0,3.25,2.76v-6.6Z" style="fill:#ebebeb"></path><path d="M393.53,139.92v6.48a18.83,18.83,0,0,0,5.85-6.48Z" style="fill:#ebebeb"></path><path d="M385.74,119.18h5.85V113a17.73,17.73,0,0,0-3.29,2.75A20.47,20.47,0,0,0,385.74,119.18Z" style="fill:#ebebeb"></path><path d="M393.53,113.2v6h5.62A17.92,17.92,0,0,0,393.53,113.2Z" style="fill:#ebebeb"></path></g><ellipse cx="322.08" cy="32.02" rx="18.17" ry="18.45" transform="matrix(0.94, -0.33, 0.33, 0.94, 7.35, 107.58)" style="fill:#ebebeb"></ellipse><path d="M307.88,31.79A14.47,14.47,0,0,0,322,46.39a14.11,14.11,0,0,0,14.28-14.14,14.45,14.45,0,0,0-14.1-14.6A14.13,14.13,0,0,0,307.88,31.79Z" style="fill:#fff"></path><path d="M311.84,31.85A10.43,10.43,0,0,0,322,42.38a10.17,10.17,0,0,0,10.3-10.19,10.42,10.42,0,0,0-10.16-10.53A10.18,10.18,0,0,0,311.84,31.85Z" style="fill:#ebebeb"></path><path d="M315.85,31.92A6.35,6.35,0,0,0,322,38.33a6.2,6.2,0,0,0,6.27-6.21,6.35,6.35,0,0,0-6.19-6.41A6.2,6.2,0,0,0,315.85,31.92Z" style="fill:#fff"></path><path d="M319.31,32a2.82,2.82,0,0,0,2.75,2.85,2.76,2.76,0,0,0,2.79-2.76,2.83,2.83,0,0,0-2.75-2.86A2.76,2.76,0,0,0,319.31,32Z" style="fill:#ebebeb"></path><polygon points="322.22 32.08 341.28 22.06 341.13 21.79 322.08 31.8 322.22 32.08" style="fill:#ebebeb"></polygon><polygon points="342.4 22.55 342.33 22.52 341.11 22.14 343.52 20.89 344.82 21.28 342.4 22.55" style="fill:#ebebeb"></polygon><path d="M343.81,19.34l-.43,1.27L341,21.87a5.49,5.49,0,0,0,.42-1.26Z" style="fill:#ebebeb"></path><polygon points="321.5 31.71 322 32.61 323.34 32.5 322.46 31.78 322.37 30.65 321.5 31.71" style="fill:#ebebeb"></polygon><rect x="244.34" y="36.19" width="3.56" height="22.88" style="fill:#ebebeb"></rect><rect x="250.46" y="39.99" width="3.56" height="19.08" style="fill:#ebebeb"></rect><rect x="256.58" y="46.92" width="3.56" height="12.14" style="fill:#ebebeb"></rect><rect x="262.69" y="39.65" width="3.56" height="19.41" style="fill:#ebebeb"></rect><rect x="268.81" y="42.84" width="3.56" height="16.22" style="fill:#ebebeb"></rect><rect x="274.92" y="33" width="3.56" height="26.07" style="fill:#ebebeb"></rect><path d="M242.28,31.41l0,6.91,0,6.92,0,13.82-.09-.11c8.64,0,17.29,0,25.93,0l7.21,0,6.39.06-6.39.07-7.21,0c-8.64,0-17.29.05-25.93,0h-.09v-.12l0-13.82,0-6.92Z" style="fill:#ebebeb"></path><path d="M241.5,33a2.36,2.36,0,0,1,.78-.13,2.18,2.18,0,0,1,.79.13,2.42,2.42,0,0,1-.79.13A2.36,2.36,0,0,1,241.5,33Z" style="fill:#ebebeb"></path><path d="M241.5,35.74a2.36,2.36,0,0,1,.78-.13,2.42,2.42,0,0,1,.79.13,2.18,2.18,0,0,1-.79.13A2.36,2.36,0,0,1,241.5,35.74Z" style="fill:#ebebeb"></path><path d="M241.5,38.49a2.13,2.13,0,0,1,.78-.13,2.18,2.18,0,0,1,.79.13,2.17,2.17,0,0,1-.79.12A2.12,2.12,0,0,1,241.5,38.49Z" style="fill:#ebebeb"></path><path d="M241.5,41.23a2.36,2.36,0,0,1,.78-.13,2.42,2.42,0,0,1,.79.13,2.42,2.42,0,0,1-.79.13A2.36,2.36,0,0,1,241.5,41.23Z" style="fill:#ebebeb"></path><path d="M241.5,44a2.13,2.13,0,0,1,.78-.13,2.18,2.18,0,0,1,.79.13,2.17,2.17,0,0,1-.79.12A2.35,2.35,0,0,1,241.5,44Z" style="fill:#ebebeb"></path><path d="M241.5,46.72a2.36,2.36,0,0,1,.78-.13,2.42,2.42,0,0,1,.79.13,2.42,2.42,0,0,1-.79.13A2.36,2.36,0,0,1,241.5,46.72Z" style="fill:#ebebeb"></path><path d="M241.5,49.46a2.12,2.12,0,0,1,.78-.12,2.17,2.17,0,0,1,.79.12,2.18,2.18,0,0,1-.79.13A2.13,2.13,0,0,1,241.5,49.46Z" style="fill:#ebebeb"></path><path d="M241.5,52.21a2.36,2.36,0,0,1,.78-.13,2.42,2.42,0,0,1,.79.13,2.42,2.42,0,0,1-.79.13A2.36,2.36,0,0,1,241.5,52.21Z" style="fill:#ebebeb"></path><path d="M241.5,55a2.36,2.36,0,0,1,.78-.13,2.42,2.42,0,0,1,.79.13,2.18,2.18,0,0,1-.79.13A2.13,2.13,0,0,1,241.5,55Z" style="fill:#ebebeb"></path><path d="M353.72,153.12l-.41-.29c.2-.27.38-.54.57-.81l.41.28C354.11,152.57,353.92,152.85,353.72,153.12Z" style="fill:#ebebeb"></path><path d="M355.41,150.6l-.42-.27c.35-.56.7-1.14,1-1.72l.43.25Q356,149.74,355.41,150.6Zm2-3.51-.44-.24c.32-.59.63-1.18.92-1.79l.45.23C358.09,145.89,357.78,146.5,357.46,147.09Zm1.8-3.64-.45-.21c.27-.61.54-1.22.8-1.85l.46.19C359.81,142.21,359.54,142.83,359.26,143.45Zm1.55-3.76-.47-.17c.23-.63.46-1.26.67-1.9l.48.16C361.27,138.42,361,139.06,360.81,139.69Zm1.28-3.85-.48-.14c.19-.65.37-1.29.54-1.95l.49.13C362.46,134.54,362.28,135.19,362.09,135.84Zm1-3.93-.49-.11c.15-.66.28-1.31.41-2l.49.09C363.39,130.58,363.26,131.25,363.11,131.91Zm.75-4-.5-.07c.1-.67.19-1.34.27-2l.5.06Q364,126.9,363.86,127.91Zm.47-4-.5,0c.06-.67.1-1.34.14-2l.5,0C364.43,122.52,364.39,123.2,364.33,123.87Zm.2-4.06H364c0-.29,0-.57,0-.85s0-.78,0-1.17h.5c0,.39,0,.79,0,1.18S364.54,119.53,364.53,119.81Zm-.58-4c0-.67-.08-1.34-.14-2l.49,0c.06.67.11,1.34.15,2Zm-.36-4c-.08-.67-.18-1.34-.28-2l.49-.08c.11.67.2,1.34.29,2Zm-.64-4c-.13-.66-.27-1.32-.42-2l.49-.12c.15.66.29,1.33.42,2Zm-.91-3.93c-.17-.65-.36-1.3-.56-1.94l.48-.15c.2.65.39,1.3.56,2ZM360.86,100q-.33-1-.69-1.89l.47-.18c.24.63.47,1.27.69,1.91Zm-1.45-3.76c-.26-.62-.53-1.24-.81-1.85l.45-.21c.28.62.56,1.24.82,1.86Zm-1.69-3.66c-.31-.6-.62-1.19-1-1.78l.44-.24c.33.59.64,1.19,1,1.79Zm-2-3.53c-.34-.58-.7-1.15-1.06-1.72l.42-.27c.36.57.72,1.15,1.07,1.73Zm-2.18-3.39c-.38-.55-.78-1.1-1.18-1.64l.4-.3c.41.55.8,1.1,1.19,1.65Zm-2.41-3.23c-.42-.53-.85-1-1.28-1.55l.38-.33c.44.52.87,1,1.29,1.57Zm-2.62-3.06c-.45-.49-.91-1-1.39-1.46l.36-.35c.48.48.94,1,1.4,1.47Zm-2.82-2.87-1.48-1.36.33-.37c.5.45,1,.9,1.49,1.37Zm-3-2.67c-.52-.43-1-.84-1.58-1.25l.31-.4c.54.41,1.07.84,1.59,1.27Zm-72.81-1.42-.3-.4c.53-.41,1.08-.81,1.63-1.21l.29.41Q270.72,71.78,269.92,72.39Zm69.62-1c-.54-.39-1.09-.77-1.65-1.15l.27-.41c.57.37,1.12.76,1.67,1.15Zm-66.33-1.3-.28-.42c.57-.37,1.14-.74,1.72-1.09l.26.43C274.34,69.33,273.77,69.69,273.21,70.06Zm63-.93c-.57-.35-1.15-.69-1.73-1l.25-.43c.58.33,1.16.68,1.74,1ZM276.65,68l-.25-.44c.59-.33,1.19-.65,1.79-1l.23.45Q277.52,67.47,276.65,68Zm56.05-.82c-.59-.32-1.19-.62-1.8-.91l.22-.45c.61.29,1.21.6,1.81.91Zm-52.48-1-.21-.45c.61-.29,1.23-.57,1.85-.84l.2.45C281.44,65.53,280.83,65.81,280.22,66.1Zm48.85-.71q-.92-.4-1.86-.78l.19-.47c.63.25,1.25.52,1.87.79Zm-45.15-.9-.18-.46c.63-.25,1.26-.49,1.9-.72l.17.47C285.17,64,284.54,64.24,283.92,64.49Zm41.41-.6-1.91-.65.16-.47c.64.2,1.28.42,1.92.65Zm-37.61-.75-.15-.48c.64-.2,1.29-.4,1.94-.58l.14.48C289,62.74,288.36,62.94,287.72,63.14Zm33.77-.48c-.64-.18-1.29-.36-1.94-.52l.12-.48c.66.16,1.31.33,2,.52Zm-29.89-.61-.12-.48q1-.24,2-.45l.11.49C292.91,61.75,292.25,61.89,291.6,62.05Zm26-.36c-.6-.13-1.2-.24-1.81-.35l-.16,0,.08-.49.17,0c.61.1,1.22.22,1.83.35Zm-22-.45-.09-.5,2-.3.07.49C296.87,61,296.21,61.12,295.55,61.24ZM313.61,61c-.66-.09-1.33-.18-2-.25l.06-.5c.67.08,1.34.16,2,.26Zm-14.07-.29-.05-.5c.67-.07,1.35-.13,2-.17l0,.5C300.88,60.57,300.21,60.63,299.54,60.7Zm10.07-.14c-.67-.05-1.34-.09-2-.11V60c.68,0,1.36.06,2,.11Zm-6.05-.13v-.5c.6,0,1.2,0,1.8,0h.23v.5h-.23C304.75,60.41,304.16,60.41,303.56,60.43Z" style="fill:#ebebeb"></path><path d="M267.53,74.3l-.32-.38c.25-.22.51-.43.77-.64l.32.39Z" style="fill:#ebebeb"></path><path d="M369.69,125.73l-1.56-.28.09-.49,1.56.28Zm-3.53-.63-2-.36.09-.49,2,.35Z" style="fill:#ebebeb"></path><path d="M353.77,85.46l-.29-.41,1.64-1.14.29.41Zm3.28-2.29-.29-.41,1.65-1.14.28.41Z" style="fill:#ebebeb"></path><path d="M271.76,70.74l-1.14-1.64.41-.29,1.14,1.65Zm-2.28-3.28-1.14-1.65.41-.28,1.14,1.64Z" style="fill:#ebebeb"></path><path d="M316.06,61.14l-.49-.09.35-2,.49.09Zm.71-3.94-.49-.09.35-2,.49.09Z" style="fill:#ebebeb"></path></g><g id="freepik--Device--inject-58"><path d="M320,82.4H151a17.26,17.26,0,0,0-17.09,17.42v348A17.27,17.27,0,0,0,151,465.21H320a17.29,17.29,0,0,0,17.12-17.42v-348A17.28,17.28,0,0,0,320,82.4ZM326.42,437c0,9.16-6.86,16.57-15.31,16.57H159.88c-8.48,0-15.33-7.41-15.33-16.57V113c0-18.66,6.85-19.57,15.33-19.57h30.3c1.76,0,3.2,2,3.2,4.48V99c0,5.81,3.18,5.83,7.08,5.83h70c3.94,0,7.1,0,7.1-5.83V97.92c0-2.48,1.42-4.48,3.21-4.48h30.29c8.45,0,15.31,2.48,15.31,19.57Z" style="fill:#37474f"></path><path d="M326.39,113V437.26c0,9.16-6.87,16.58-15.33,16.58H159.74c-8.49,0-15.35-7.42-15.35-16.58V113c0-18.67,6.86-19.58,15.35-19.58H190c1.76,0,3.2,2,3.2,4.49V99c0,5.81,3.19,5.83,7.1,5.83h70.1c3.94,0,7.09,0,7.09-5.83V97.93c0-2.48,1.42-4.49,3.21-4.49h30.32C319.52,93.44,326.39,95.93,326.39,113Z" style="fill:#fff"></path><path d="M326.38,113v24.2h-182V113c0-18.67,6.87-19.58,15.35-19.58h30.32c1.76,0,3.2,2,3.2,4.49V99c0,5.81,3.18,5.83,7.08,5.83h70.1c3.94,0,7.1,0,7.1-5.83V97.93c0-2.48,1.42-4.49,3.22-4.49h30.3C319.52,93.44,326.38,95.93,326.38,113Z" style="fill:#ebebeb"></path><polygon points="162.81 125.41 157.43 120.37 162.81 115.33 163.64 116.22 159.21 120.37 163.64 124.52 162.81 125.41" style="fill:#fff"></polygon><path d="M312.29,117.23a1.06,1.06,0,1,1-2.12,0,1.06,1.06,0,1,1,2.12,0Z" style="fill:#fff"></path><path d="M312.29,121a1.06,1.06,0,1,1-1.06-1A1.05,1.05,0,0,1,312.29,121Z" style="fill:#fff"></path><path d="M312.29,124.76a1.06,1.06,0,1,1-1.06-1.06A1.05,1.05,0,0,1,312.29,124.76Z" style="fill:#fff"></path><g id="freepik--u5Zjqx--inject-58"><path d="M184.81,100.73l-.29.29-.17.16a4,4,0,0,0-5.64,0l-.16-.17-.29-.29h0l0,0,.37-.33a4.78,4.78,0,0,1,.86-.54,4.14,4.14,0,0,1,1.14-.38,5,5,0,0,1,.56-.08h.5l.39,0a4.77,4.77,0,0,1,1,.25,4.66,4.66,0,0,1,1.37.8l.31.28Z" style="fill:#fff"></path><path d="M179.64,102.1l-.47-.45a3.33,3.33,0,0,1,4.72,0l-.47.46a2.68,2.68,0,0,0-3.78,0Z" style="fill:#fff"></path><path d="M183,102.57l-.46.46a1.36,1.36,0,0,0-1-.41,1.4,1.4,0,0,0-1,.41l-.46-.46A2,2,0,0,1,183,102.57Z" style="fill:#fff"></path><path d="M182,103.44a.42.42,0,0,1-.42.42.42.42,0,0,1,0-.83A.42.42,0,0,1,182,103.44Z" style="fill:#fff"></path></g><circle cx="157.46" cy="101.61" r="1.21" style="fill:#fff"></circle><path d="M160.05,101.61a1.21,1.21,0,1,1,1.21,1.21A1.21,1.21,0,0,1,160.05,101.61Z" style="fill:#fff"></path><path d="M163.85,101.61a1.21,1.21,0,1,1,1.21,1.21A1.21,1.21,0,0,1,163.85,101.61Z" style="fill:#fff"></path><circle cx="168.86" cy="101.61" r="1.21" style="fill:#fff"></circle><path d="M171.45,101.61a1.21,1.21,0,1,1,1.21,1.21A1.21,1.21,0,0,1,171.45,101.61Z" style="fill:#fff"></path><path d="M312.74,104.25H302.9V99.69h9.84Zm-9.32-.51h8.8V100.2h-8.8Z" style="fill:#fff"></path><rect x="303.73" y="100.47" width="6.33" height="3" style="fill:#fff"></rect><rect x="312.74" y="100.75" width="0.87" height="2.43" style="fill:#fff"></rect><polygon points="172.04 434.02 170.66 434.02 170.66 440.37 168.07 440.37 168.07 437.13 163.49 437.13 163.49 440.37 160.91 440.37 160.91 434.02 159.52 434.02 165.78 427.55 172.04 434.02" style="fill:#ebebeb"></polygon><rect x="296.17" y="427.55" width="15.09" height="2.16" style="fill:#ebebeb"></rect><rect x="296.17" y="432.88" width="15.09" height="2.16" style="fill:#ebebeb"></rect><rect x="296.17" y="438.21" width="15.09" height="2.16" style="fill:#ebebeb"></rect><polygon points="239.68 433.1 235.39 437.68 231.1 433.1 231.86 432.39 235.39 436.16 238.92 432.39 239.68 433.1" style="fill:#ebebeb"></polygon><path d="M235.39,442.41a7.79,7.79,0,1,1,7.79-7.79A7.8,7.8,0,0,1,235.39,442.41Zm0-14.55a6.76,6.76,0,1,0,6.76,6.76A6.76,6.76,0,0,0,235.39,427.86Z" style="fill:#ebebeb"></path><rect x="171.65" y="114.44" width="127.49" height="12.43" style="opacity:0.1"></rect><path d="M220.56,123.42l-1,.76-1.87-2.46-.68-.9a1.26,1.26,0,0,0,.39-.22,1.61,1.61,0,0,0,.52-.67l.72,1Z" style="fill:#fff"></path><path d="M218.58,117.63a2.74,2.74,0,1,0-.89,4.09,2.45,2.45,0,0,0,.38-.24,2.87,2.87,0,0,0,.57-.59A2.75,2.75,0,0,0,218.58,117.63Zm-1.18,3a1.26,1.26,0,0,1-.39.22,1.61,1.61,0,0,1-1.9-.52,1.64,1.64,0,1,1,2.81-.37A1.61,1.61,0,0,1,217.4,120.6Z" style="fill:#fff"></path><path d="M225.73,122a.49.49,0,0,1,.69-.07,3.05,3.05,0,0,0,1.8.73,2,2,0,0,0,1.18-.35.86.86,0,0,0,.41-.68.53.53,0,0,0-.09-.3.82.82,0,0,0-.28-.28,3.89,3.89,0,0,0-1.29-.45h0a4.84,4.84,0,0,1-1.22-.36,2.05,2.05,0,0,1-.88-.74,1.46,1.46,0,0,1-.21-.77,1.75,1.75,0,0,1,.75-1.38,2.79,2.79,0,0,1,1.63-.5,3.7,3.7,0,0,1,2.06.75.48.48,0,0,1,.13.67.48.48,0,0,1-.67.15,2.67,2.67,0,0,0-1.52-.61,1.77,1.77,0,0,0-1,.32.75.75,0,0,0-.36.6.5.5,0,0,0,.06.26,1,1,0,0,0,.26.25,3.14,3.14,0,0,0,1.18.41h0a5.84,5.84,0,0,1,1.3.4,2.19,2.19,0,0,1,.94.78,1.56,1.56,0,0,1,.23.8,1.83,1.83,0,0,1-.81,1.47,3,3,0,0,1-1.75.53,4.06,4.06,0,0,1-2.41-.94A.5.5,0,0,1,225.73,122Z" style="fill:#fff"></path><path d="M231.8,121.25a2.34,2.34,0,0,1,2.3-2.36,2.26,2.26,0,0,1,2.27,2.19v0a.28.28,0,0,1,0,.09.45.45,0,0,1-.49.37h-3a1.27,1.27,0,0,0,.32.63,1.52,1.52,0,0,0,1.89.18.55.55,0,0,1,.71,0,.44.44,0,0,1,0,.61,2.42,2.42,0,0,1-1.69.62A2.34,2.34,0,0,1,231.8,121.25Zm1-.46h2.67a1.53,1.53,0,0,0-1.39-1A1.33,1.33,0,0,0,232.82,120.79Z" style="fill:#fff"></path><path d="M241.86,121.26v1.85a.5.5,0,0,1-.5.5.52.52,0,0,1-.49-.4,2.19,2.19,0,0,1-2.86-.29,2.47,2.47,0,0,1,0-3.32,2.13,2.13,0,0,1,2.86-.29.52.52,0,0,1,.49-.42.51.51,0,0,1,.5.51Zm-1,0a1.39,1.39,0,0,0-.37-1,1.18,1.18,0,0,0-1.75,0,1.49,1.49,0,0,0,0,1.94,1.22,1.22,0,0,0,1.75,0A1.39,1.39,0,0,0,240.86,121.26Z" style="fill:#fff"></path><path d="M246.61,119.39a.5.5,0,0,1-.5.51.91.91,0,0,0-.56.17,1.61,1.61,0,0,0-.44.46,2.8,2.8,0,0,0-.38.79v1.79a.51.51,0,0,1-.52.5.5.5,0,0,1-.5-.5v-3.72a.5.5,0,0,1,.5-.49.51.51,0,0,1,.52.49v.07a.9.9,0,0,1,.2-.19,2,2,0,0,1,1.18-.37A.49.49,0,0,1,246.61,119.39Z" style="fill:#fff"></path><path d="M247.28,121.26a2.41,2.41,0,0,1,2.4-2.37,2.5,2.5,0,0,1,1.5.52.51.51,0,0,1,.1.7.49.49,0,0,1-.7.1,1.53,1.53,0,0,0-.9-.31,1.41,1.41,0,0,0-1.4,1.36,1.39,1.39,0,0,0,1.4,1.35,1.54,1.54,0,0,0,.9-.3.5.5,0,1,1,.6.8,2.62,2.62,0,0,1-1.5.5A2.39,2.39,0,0,1,247.28,121.26Z" style="fill:#fff"></path><path d="M254.05,123.09a.52.52,0,0,1-.53.52.54.54,0,0,1-.5-.38.59.59,0,0,1,0-.14v-5.56a.53.53,0,0,1,1.05,0v1.64a2.15,2.15,0,0,1,1-.28,2.06,2.06,0,0,1,2.05,2.07v2.13a.52.52,0,1,1-1,0V121a1,1,0,1,0-2,0Z" style="fill:#fff"></path><rect x="154.44" y="171.65" width="161.89" height="136.26" transform="translate(470.77 479.55) rotate(180)" style="fill:#ebebeb;opacity:0.30000000000000004"></rect><rect x="169.23" y="292.13" width="4.2" height="4.2" style="fill:#20C160"></rect><rect x="176.34" y="292.13" width="45.97" height="1.24" style="fill:#455a64"></rect><rect x="176.34" y="295.09" width="29.71" height="1.24" style="fill:#455a64"></rect><path d="M164.39,195.48c23.67-.17,47.33-.13,71-.2s47.33,0,71,.2c-23.67.18-47.33.13-71,.2S188.06,195.66,164.39,195.48Z" style="fill:#455a64"></path><path d="M164.39,211.94c23.67-.17,47.33-.13,71-.2s47.33,0,71,.2c-23.67.17-47.33.13-71,.2S188.06,212.11,164.39,211.94Z" style="fill:#455a64"></path><path d="M164.39,228.39c23.67-.17,47.33-.12,71-.2,23.67.07,47.33,0,71,.2-23.67.18-47.33.13-71,.21C211.72,228.52,188.06,228.57,164.39,228.39Z" style="fill:#455a64"></path><path d="M164.39,244.85c23.67-.17,47.33-.13,71-.2s47.33,0,71,.2c-23.67.17-47.33.13-71,.2S188.06,245,164.39,244.85Z" style="fill:#455a64"></path><path d="M164.39,261.31c23.67-.18,47.33-.13,71-.21,23.67.08,47.33,0,71,.21-23.67.17-47.33.13-71,.2S188.06,261.48,164.39,261.31Z" style="fill:#455a64"></path><path d="M193,184.78c.21,15.38.15,30.76.24,46.13-.08,15.38,0,30.75-.24,46.13-.21-15.38-.16-30.75-.24-46.13C192.82,215.54,192.77,200.16,193,184.78Z" style="fill:#455a64"></path><path d="M217.53,184.78c.21,15.38.16,30.76.24,46.13-.08,15.38,0,30.75-.24,46.13-.21-15.38-.15-30.75-.24-46.13C217.38,215.54,217.32,200.16,217.53,184.78Z" style="fill:#455a64"></path><path d="M242.09,184.78c.2,15.38.15,30.76.24,46.13-.09,15.38,0,30.75-.24,46.13-.21-15.38-.16-30.75-.25-46.13C241.93,215.54,241.88,200.16,242.09,184.78Z" style="fill:#455a64"></path><path d="M266.64,184.78c.21,15.38.15,30.76.24,46.13-.08,15.38,0,30.75-.24,46.13-.21-15.38-.16-30.75-.24-46.13C266.48,215.54,266.43,200.16,266.64,184.78Z" style="fill:#455a64"></path><path d="M291.19,184.78c.21,15.38.16,30.76.24,46.13-.08,15.38,0,30.75-.24,46.13-.21-15.38-.15-30.75-.24-46.13C291,215.54,291,200.16,291.19,184.78Z" style="fill:#455a64"></path><path d="M168,185.79c.16,15.2.29,30.41.31,45.62l.14,45.63-.45-.38,69.2.1,34.6.07,34.61.21-34.61.2-34.6.08-69.2.09h-.46V277l.15-45.63C167.68,216.2,167.81,201,168,185.79Z" style="fill:#455a64"></path><rect x="184.43" y="256.7" width="17.1" height="20.01" style="fill:#20C160"></rect><rect x="184.43" y="256.7" width="17.1" height="20.01" style="fill:#fff;opacity:0.6000000000000001"></rect><rect x="196.46" y="256.7" width="5.07" height="20.01" style="fill:#fff;opacity:0.5"></rect><rect x="208.98" y="228.23" width="17.1" height="48.47" style="fill:#20C160"></rect><rect x="208.98" y="228.23" width="17.1" height="48.47" style="fill:#fff;opacity:0.6000000000000001"></rect><rect x="221.01" y="228.23" width="5.07" height="48.47" style="fill:#fff;opacity:0.5"></rect><rect x="233.54" y="212.14" width="17.1" height="64.56" style="fill:#20C160"></rect><rect x="233.54" y="212.14" width="17.1" height="64.56" style="fill:#fff;opacity:0.6000000000000001"></rect><rect x="245.57" y="212.14" width="5.07" height="64.56" style="fill:#fff;opacity:0.5"></rect><rect x="258.09" y="221.64" width="17.1" height="55.07" style="fill:#20C160"></rect><rect x="258.09" y="221.64" width="17.1" height="55.07" style="fill:#fff;opacity:0.6000000000000001"></rect><rect x="270.12" y="221.64" width="5.07" height="55.07" style="fill:#fff;opacity:0.5"></rect><rect x="282.64" y="195.68" width="17.1" height="81.02" style="fill:#20C160"></rect><rect x="282.64" y="195.68" width="17.1" height="81.02" style="fill:#fff;opacity:0.6000000000000001"></rect><rect x="294.67" y="195.68" width="5.07" height="81.02" style="fill:#fff;opacity:0.5"></rect><polygon points="193.19 257.33 191.65 256.06 215.16 227.48 240.74 211.03 266.15 220.46 359.63 116.75 361.11 118.09 266.72 222.81 240.98 213.25 216.51 228.99 193.19 257.33" style="fill:#455a64"></polygon><polygon points="363.64 122.73 366.13 111.03 354.75 114.72 363.64 122.73" style="fill:#455a64"></polygon><path d="M196.46,258.22a4,4,0,1,1-4-4.05A4,4,0,0,1,196.46,258.22Z" style="fill:#20C160"></path><rect x="154.44" y="318.64" width="93.17" height="97.31" style="fill:#ebebeb;opacity:0.6000000000000001"></rect><rect x="174.78" y="398.73" width="4.15" height="4.15" style="fill:#20C160"></rect><rect x="181.81" y="398.73" width="45.45" height="1.23" style="fill:#455a64"></rect><rect x="181.81" y="401.66" width="29.37" height="1.23" style="fill:#455a64"></rect><path d="M165.25,338.26c11.92-.11,23.85-.08,35.77-.12s23.85,0,35.78.12c-11.93.11-23.85.08-35.78.12S177.17,338.37,165.25,338.26Z" style="fill:#455a64"></path><path d="M165.25,348.34c11.92-.11,23.85-.08,35.77-.12s23.85,0,35.78.12c-11.93.11-23.85.08-35.78.12S177.17,348.45,165.25,348.34Z" style="fill:#455a64"></path><path d="M165.25,358.42c11.92-.11,23.85-.08,35.77-.12s23.85,0,35.78.12c-11.93.11-23.85.08-35.78.12S177.17,358.53,165.25,358.42Z" style="fill:#455a64"></path><path d="M165.25,368.5c11.92-.11,23.85-.08,35.77-.12s23.85,0,35.78.12c-11.93.11-23.85.08-35.78.12S177.17,368.61,165.25,368.5Z" style="fill:#455a64"></path><path d="M165.25,378.58c11.92-.11,23.85-.08,35.77-.12s23.85,0,35.78.12c-11.93.11-23.85.08-35.78.12S177.17,378.69,165.25,378.58Z" style="fill:#455a64"></path><path d="M179.65,331.71c.11,9.41.08,18.83.12,28.25s0,18.84-.12,28.26c-.1-9.42-.08-18.84-.12-28.26S179.55,341.12,179.65,331.71Z" style="fill:#455a64"></path><path d="M192,331.71c.11,9.41.08,18.83.13,28.25s0,18.84-.13,28.26c-.1-9.42-.07-18.84-.12-28.26S191.92,341.12,192,331.71Z" style="fill:#455a64"></path><path d="M204.4,331.71c.1,9.41.08,18.83.12,28.25s0,18.84-.12,28.26c-.11-9.42-.08-18.84-.12-28.26S204.29,341.12,204.4,331.71Z" style="fill:#455a64"></path><path d="M216.77,331.71c.11,9.41.08,18.83.12,28.25s0,18.84-.12,28.26c-.1-9.42-.08-18.84-.12-28.26S216.67,341.12,216.77,331.71Z" style="fill:#455a64"></path><path d="M229.14,331.71c.11,9.41.08,18.83.13,28.25s0,18.84-.13,28.26c-.1-9.42-.08-18.84-.12-28.26S229,341.12,229.14,331.71Z" style="fill:#455a64"></path><path d="M167.05,371.27c2.18,0,3.48-10.24,6.58-10.24s3.42,7.47,6,7.47,2.53-13.12,6-13.12,2.68,5.32,6.34,5.32,2.28-12.36,6.11-12.36,2.28,17,6.27,17c2.52,0,3.5-5.41,6.51-5.41,2,0,3.17,2.71,5.78,2.71s3.17-10.4,6.43-10.4,3.63,6.15,6,6.15,3.26-10.08,7.66-10.08v39.88H167.05Z" style="fill:#20C160;opacity:0.5"></path><path d="M167.05,371.76v-1c.66,0,1.57-2.4,2.24-4.14,1.14-3,2.32-6.1,4.34-6.1s2.9,2.27,3.75,4.27c.66,1.57,1.35,3.2,2.27,3.2s1.52-3.15,2-5.45c.84-3.78,1.71-7.67,4-7.67,2,0,2.82,1.53,3.52,2.88s1.27,2.44,2.82,2.44,2-2.89,2.5-5.68c.62-3.29,1.27-6.68,3.61-6.68s2.91,4.28,3.54,8.8c.51,3.67,1.14,8.23,2.73,8.23.95,0,1.72-1.13,2.55-2.32,1-1.45,2.13-3.09,4-3.09a4.65,4.65,0,0,1,2.79,1.32,4.84,4.84,0,0,0,3,1.39c.9,0,1.72-2.48,2.39-4.47,1-2.92,2-5.94,4-5.94s3.06,2,3.95,3.7c.65,1.26,1.27,2.46,2.07,2.46s1.47-1.92,2.16-3.61c1.18-2.88,2.64-6.47,5.5-6.47v1c-2.2,0-3.47,3.12-4.59,5.87-1,2.35-1.72,4.21-3.07,4.21s-2.15-1.45-2.94-3-1.63-3.16-3.08-3.16-2.29,2.8-3.12,5.27c-.91,2.75-1.71,5.13-3.31,5.13a5.78,5.78,0,0,1-3.6-1.59,3.83,3.83,0,0,0-2.18-1.12c-1.32,0-2.25,1.36-3.16,2.68s-1.89,2.73-3.35,2.73c-2.44,0-3.05-4.4-3.7-9.07-.49-3.54-1.1-8-2.57-8s-2.13,3.13-2.65,5.88c-.64,3.34-1.24,6.48-3.46,6.48s-3-1.57-3.69-3-1.22-2.35-2.65-2.35-2.35,3.83-3,6.9c-.78,3.48-1.39,6.22-3,6.22s-2.35-1.84-3.18-3.79-1.55-3.68-2.84-3.68-2.5,3-3.43,5.47C169.18,369.66,168.38,371.76,167.05,371.76Z" style="fill:#20C160"></path><path d="M167.05,332.32c.08,9.32.15,18.63.15,27.95l.08,28-.23-.23,34.87.06,17.44,0,17.44.13-17.44.12-17.44.05-34.87.06h-.23v-.23l.07-28C166.9,351,167,341.64,167.05,332.32Z" style="fill:#455a64"></path><rect x="255.24" y="318.64" width="61.09" height="97.31" style="fill:#ebebeb;opacity:0.30000000000000004"></rect><path d="M291.92,337.26l-6.14,21.49v22.34a22.34,22.34,0,0,1,0-44.68A22.59,22.59,0,0,1,291.92,337.26Z" style="fill:#a6a6a6"></path><path d="M299,376.74a22.13,22.13,0,0,1-13.23,4.35V358.75Z" style="fill:#fff"></path><path d="M308.13,358.75a22.28,22.28,0,0,1-9.12,18l-13.23-18,17.38-14.05A22.31,22.31,0,0,1,308.13,358.75Z" style="fill:#37474f"></path><path d="M308.13,337.47l-17.38,14L296.89,330A22.38,22.38,0,0,1,308.13,337.47Z" style="fill:#20C160"></path><rect x="264.98" y="398.73" width="4.15" height="4.15" style="fill:#a6a6a6"></rect><rect x="272.02" y="398.73" width="30.03" height="1.23" style="fill:#455a64"></rect><rect x="272.02" y="401.66" width="13.94" height="1.23" style="fill:#455a64"></rect><path d="M244.93,97.41h-19.1a1.18,1.18,0,0,1-1.18-1.18h0a1.18,1.18,0,0,1,1.18-1.18h19.1a1.18,1.18,0,0,1,1.18,1.18h0A1.18,1.18,0,0,1,244.93,97.41Z" style="fill:#263238"></path></g><g id="freepik--chart-2--inject-58"><path d="M457.27,137v85.77H345.78V218.7a5.4,5.4,0,0,1-1.56.22,6.28,6.28,0,0,1-1.24-.13,5.8,5.8,0,0,1-1.11.11,5.28,5.28,0,0,1-1.55-.23,6,6,0,0,1-1.58.21,6.1,6.1,0,0,1-1.9-.31,6.82,6.82,0,0,1-1.74.3h-.19a5.31,5.31,0,0,1-5.26-4.64,6.18,6.18,0,0,1-.65-2.78,6.29,6.29,0,0,1,6.29-6.28,6.4,6.4,0,0,1,1.76.25,6,6,0,0,1,1.69-.25,6.24,6.24,0,0,1,1.56.2,5.85,5.85,0,0,1,1.69-.25,5.68,5.68,0,0,1,1.24.14,5.11,5.11,0,0,1,2.55.09v-2.86a5.54,5.54,0,0,1-1.63.24,6.36,6.36,0,0,1-1.24-.13,5.7,5.7,0,0,1-1.1.11,5.28,5.28,0,0,1-1.55-.23,6.4,6.4,0,0,1-1.58.21,6.15,6.15,0,0,1-1.71-.25,6.4,6.4,0,0,1-1.76.25,6.28,6.28,0,0,1-6.27-6.26,6.11,6.11,0,0,1,.44-2.3,5.89,5.89,0,0,1,5.83-5.15,5.66,5.66,0,0,1,1.71.26,6.1,6.1,0,0,1,1.76-.26,6.24,6.24,0,0,1,1.56.2,5.84,5.84,0,0,1,1.68-.25,5.61,5.61,0,0,1,1.24.14,5.12,5.12,0,0,1,2.62.11v-3a5.54,5.54,0,0,1-2,.35,5.61,5.61,0,0,1-1.24-.13,5.08,5.08,0,0,1-1.1.12,5,5,0,0,1-1.55-.24,6,6,0,0,1-3.43-.08,5.29,5.29,0,0,1-7-5.78,5.29,5.29,0,0,1,4.74-7.64h2.38l.48.1h.05a6.42,6.42,0,0,1,1.16-.11,5.83,5.83,0,0,0,3.24,0,5.67,5.67,0,0,1,1.24.13,5.08,5.08,0,0,1,1.1-.12,5,5,0,0,1,1.85.35v-3a5.4,5.4,0,0,1-1.56.22,6.28,6.28,0,0,1-1.24-.13,5.8,5.8,0,0,1-1.11.11,5.28,5.28,0,0,1-1.55-.23,6,6,0,0,1-1.58.21,6.15,6.15,0,0,1-1.71-.25,6.28,6.28,0,0,1-7.49-3.47l-.44-.53-.09-1.7c0-.17,0-.34,0-.52a8,8,0,0,1,.51-2.85,6.82,6.82,0,0,1,2.59-3.3,6.58,6.58,0,0,1,3.39-1.09h.18a4.87,4.87,0,0,1,1.48.22,6.06,6.06,0,0,1,1.6-.22,6.24,6.24,0,0,1,1.56.2,5.85,5.85,0,0,1,1.69-.25,5.68,5.68,0,0,1,1.24.14,5.11,5.11,0,0,1,2.55.09v-2.88a5.84,5.84,0,0,1-1.73.26,5.61,5.61,0,0,1-1.24-.13,5.1,5.1,0,0,1-1.11.12,5,5,0,0,1-1.56-.24,5.89,5.89,0,0,1-1.57.21,6,6,0,0,1-1.74-.26,6.51,6.51,0,0,1-1.76.25,6.36,6.36,0,0,1-4.47-1.85c-.08-.09-.17-.18-.25-.28h-.49v-.66a5.37,5.37,0,0,1-.52-4.53,5.6,5.6,0,0,1-.11-1.09,5.3,5.3,0,0,1,5.3-5.3h1.56a4.83,4.83,0,0,1,1.21.15,5.95,5.95,0,0,1,2.85.07,5.77,5.77,0,0,1,1.67-.25,5.67,5.67,0,0,1,1.24.13,5,5,0,0,1,1.1-.12,5.09,5.09,0,0,1,1.62.26V137Z" style="fill:#fff"></path><path d="M457.27,137c0,.27.28,85.79.27,86,0,.09-111.65.07-111.76.14h-.41V218.7l.53.39a6.47,6.47,0,0,1-3,.11h.16a6.28,6.28,0,0,1-2.86-.13h.23a6.37,6.37,0,0,1-3.72-.1H337a6.55,6.55,0,0,1-2.53.3c-2.66-.07-5.12-2.82-5.17-4.85a6.73,6.73,0,0,1,7.91-9.44h-.25a6.57,6.57,0,0,1,3.49-.06h-.24a6.16,6.16,0,0,1,3.16-.12h-.2a6,6,0,0,1,2.79.09l-.61.45v-2.86l.61.45a5.27,5.27,0,0,1-2.33.2l-.77-.08H343a6.23,6.23,0,0,1-2.88-.13h.26a6.55,6.55,0,0,1-3.54,0h.26a6.79,6.79,0,0,1-8.18-9,6.41,6.41,0,0,1,8.15-5.17h-.29a6.6,6.6,0,0,1,3.58-.06h-.26a6.27,6.27,0,0,1,3.16-.11h-.2a11.67,11.67,0,0,1,1.44-.13,5.72,5.72,0,0,1,1.42.25l-.62.46v-3l.64.44a6.14,6.14,0,0,1-3.47.24h.2a5.94,5.94,0,0,1-2.9-.14h.27a6.53,6.53,0,0,1-3.69-.09h.29a5.76,5.76,0,0,1-7.55-6.29l0,.27a5.81,5.81,0,0,1,5.88-8.28h1.73l.48.11h0c-.32,0,.69-.07.65-.07a5.55,5.55,0,0,1,2.18.19h-.23a6.26,6.26,0,0,1,3.13-.13h-.18a5.69,5.69,0,0,1,3.19.26l-.57.39v-3l.54.4a6.61,6.61,0,0,1-3,.09h.16a11.49,11.49,0,0,1-1.44.11c-.25,0-1.9-.28-1.19-.24a6.44,6.44,0,0,1-3.51,0h.22c-3.05,1.08-7-1-7.9-3.61l-.44-.53-.09-.1v-.13l-.1-1.84c-.45-4.59,4-9.17,8.64-7.78H337a6.35,6.35,0,0,1,3.35,0h-.2a6.11,6.11,0,0,1,3.12-.11h-.16a5.91,5.91,0,0,1,2.74.1l-.48.35v-2.88l.47.34a6.39,6.39,0,0,1-3.16.14h.16a5.89,5.89,0,0,1-2.86-.14h.2a6.31,6.31,0,0,1-3.5-.06h.19a6.64,6.64,0,0,1-6.84-2l.27.13c-.17,0-.65,0-.83,0v-1l.05.18a5.72,5.72,0,0,1-.55-4.82v.17a5.67,5.67,0,0,1,5.24-6.76,12.63,12.63,0,0,1,3.13.15h-.15a6.9,6.9,0,0,1,3,.07h-.17a6.14,6.14,0,0,1,3.07-.13H343a5.78,5.78,0,0,1,2.89.16l-.41.29v-4c27.92.06,83.87.19,111.79.31Zm0,0c.06-.21-112.76.81-111.19,0,0,.34,0,3.88,0,4.08l-.41-.13a5.57,5.57,0,0,0-2.66-.12,5.49,5.49,0,0,0-2.87.14,6.23,6.23,0,0,0-2.88-.08c-1.86-.3-4.06-.37-5.65.8a5.11,5.11,0,0,0-1.95,5.17,5.05,5.05,0,0,0,.48,4.3l.05.08V152l-.34-.34h.65a5.81,5.81,0,0,0,2.9,1.88,6,6,0,0,0,3.42,0,5.61,5.61,0,0,0,3.32.05,5.49,5.49,0,0,0,2.7.13,5.87,5.87,0,0,0,3.29-.26v3.86a5.69,5.69,0,0,0-1.64-.33c-.39,0-.91.09-1.3.12a5.36,5.36,0,0,0-2.89.12,5.82,5.82,0,0,0-3.07,0,6.31,6.31,0,0,0-7.74,5.28,15.85,15.85,0,0,0,0,3.58l-.09-.23.44.53a.28.28,0,0,1,.06.09,5.92,5.92,0,0,0,7,3.24.22.22,0,0,1,.22,0,5.64,5.64,0,0,0,3.18,0l.12,0a6.25,6.25,0,0,0,2.62.1c.38.05.94.11,1.32.12a6.32,6.32,0,0,0,1.82-.36v4.15a5.8,5.8,0,0,0-1.91-.54,13,13,0,0,0-1.52.11,5.41,5.41,0,0,0-2.85.14,6.29,6.29,0,0,0-2.73-.11l-.62-.12h.09a30.66,30.66,0,0,0-3.2.08,4.88,4.88,0,0,0-3.52,6.93l.06.12,0,.14a4.89,4.89,0,0,0,3.93,5.47,4.83,4.83,0,0,0,2.58-.24,5.57,5.57,0,0,0,3.45.08,5.45,5.45,0,0,0,2.69.14,5.72,5.72,0,0,0,3.62-.44c0,.91,0,3.41,0,4.33a5,5,0,0,0-2.4-.36,5.66,5.66,0,0,1-.81.07,5.23,5.23,0,0,0-2.8.14,5.72,5.72,0,0,0-3.33.07l-.15-.05a5.46,5.46,0,0,0-6.93,4.61c-1.84,4.3,2.54,9.08,7,7.67a.27.27,0,0,1,.26,0,5.61,5.61,0,0,0,3.17,0,5.7,5.7,0,0,0,2.66.15c.42,0,1,.13,1.41.12a6.32,6.32,0,0,0,1.91-.4V206a5.82,5.82,0,0,0-1.74-.37c-.34,0-.83,0-1.17.1h-.14a5.32,5.32,0,0,0-2.88.12,5.65,5.65,0,0,0-3.26,0,5.86,5.86,0,0,0-7,8.28,5,5,0,0,0,6.64,4l.13,0,.12,0a5.59,5.59,0,0,0,3.36.07l.11,0a6.42,6.42,0,0,0,2.62.11,6,6,0,0,0,2.6-.08l.53-.16v4.62c-2.4-1.07,111.53,0,111.08-.27-.54,1.68.09-85.86,0-85.5Z" style="fill:#263238"></path><rect x="350.78" y="158.17" width="101.48" height="11.03" style="fill:#ebebeb"></rect><rect x="354.46" y="161.3" width="44.62" height="4.77" style="fill:#455a64"></rect><path d="M336.57,164a1.29,1.29,0,0,1-2.57.13h0c0-.1,0-.2,0-.3a3,3,0,0,1,.19-1.09,1.81,1.81,0,0,1,.68-.9,1.48,1.48,0,0,1,.79-.25.29.29,0,0,1,.31.28.31.31,0,0,1-.29.31.84.84,0,0,0-.49.15,1,1,0,0,0-.34.37.83.83,0,0,1-.07.13,1.45,1.45,0,0,1,.51-.1A1.28,1.28,0,0,1,336.57,164Zm-.59,0a.7.7,0,1,0-1.39,0,.7.7,0,1,0,1.39,0Z" style="fill:#263238"></path><path d="M337.4,163.46a2.18,2.18,0,0,1,.36-1.27,1.18,1.18,0,0,1,1-.59,1.19,1.19,0,0,1,1,.59,2.26,2.26,0,0,1,.36,1.27,2.28,2.28,0,0,1-.36,1.27,1.21,1.21,0,0,1-1,.58,1.19,1.19,0,0,1-1-.58A2.21,2.21,0,0,1,337.4,163.46Zm2.09,0a1.72,1.72,0,0,0-.26-.94.6.6,0,0,0-.49-.33.65.65,0,0,0-.5.33,1.72,1.72,0,0,0-.26.94,1.74,1.74,0,0,0,.26.94.67.67,0,0,0,.5.33.63.63,0,0,0,.49-.33A1.74,1.74,0,0,0,339.49,163.46Z" style="fill:#263238"></path><path d="M341.11,162.52h0a.89.89,0,0,1,.87-.95.88.88,0,0,1,.87.94h0a.9.9,0,0,1-.88,1A.89.89,0,0,1,341.11,162.52Zm1.27,0h0c0-.3-.17-.54-.41-.54s-.39.24-.39.53h0c0,.3.17.54.4.54S342.38,162.81,342.38,162.52Zm-.67,2.48,2.44-3.33a.19.19,0,0,1,.18-.09.21.21,0,0,1,.21.2.22.22,0,0,1-.05.14l-2.43,3.32a.21.21,0,0,1-.19.1.2.2,0,0,1-.2-.21A.25.25,0,0,1,341.71,165Zm1.64-.58h0a.87.87,0,1,1,1.74,0h0a.87.87,0,1,1-1.74,0Zm1.27,0h0c0-.3-.17-.54-.4-.54s-.4.24-.4.53h0c0,.3.17.54.41.54S344.62,164.7,344.62,164.42Z" style="fill:#263238"></path><rect x="350.78" y="141.98" width="101.48" height="11.03" style="fill:#ebebeb"></rect><rect x="354.46" y="145.11" width="22" height="4.77" style="fill:#20C160"></rect><path d="M336,146.88a1.28,1.28,0,0,1,.39.92,1.3,1.3,0,0,1-.39.93,1.29,1.29,0,0,1-.93.39,1.32,1.32,0,0,1-.93-.39.31.31,0,0,1,0-.42.3.3,0,0,1,.43,0,.69.69,0,0,0,.5.21.72.72,0,0,0,0-1.43.26.26,0,0,1-.22-.1h0a.31.31,0,0,1,0-.43l.54-.55h-.86a.29.29,0,0,1-.29-.3.3.3,0,0,1,.29-.3h1.57a.3.3,0,0,1,.3.3.33.33,0,0,1,0,.14.35.35,0,0,1-.05.08l-.67.69A1,1,0,0,1,336,146.88Z" style="fill:#263238"></path><path d="M337.23,147.27a2.17,2.17,0,0,1,.36-1.26,1.18,1.18,0,0,1,1-.59,1.19,1.19,0,0,1,1,.59,2.4,2.4,0,0,1,0,2.53,1.22,1.22,0,0,1-1,.59,1.2,1.2,0,0,1-1-.59A2.18,2.18,0,0,1,337.23,147.27Zm2.09,0a1.83,1.83,0,0,0-.25-.94.62.62,0,0,0-.5-.32.63.63,0,0,0-.5.32,1.74,1.74,0,0,0-.26.94,1.72,1.72,0,0,0,.26.94.65.65,0,0,0,.5.33.63.63,0,0,0,.5-.33A1.81,1.81,0,0,0,339.32,147.27Z" style="fill:#263238"></path><path d="M340.94,146.33h0a.88.88,0,0,1,.87-.94.87.87,0,0,1,.87.93h0a.87.87,0,1,1-1.74,0Zm1.27,0h0c0-.29-.17-.54-.41-.54s-.39.25-.39.53h0c0,.31.17.54.4.54S342.21,146.62,342.21,146.33Zm-.67,2.48,2.44-3.32a.18.18,0,0,1,.18-.1.21.21,0,0,1,.21.21.24.24,0,0,1-.05.14l-2.43,3.32a.22.22,0,0,1-.19.09.2.2,0,0,1-.2-.2A.29.29,0,0,1,341.54,148.81Zm1.64-.58h0a.87.87,0,1,1,1.74,0h0a.87.87,0,1,1-1.74,0Zm1.27,0h0c0-.3-.17-.54-.4-.54s-.4.24-.4.53h0c0,.3.17.54.41.54S344.45,148.52,344.45,148.23Z" style="fill:#263238"></path><rect x="350.78" y="206.73" width="101.48" height="11.03" style="fill:#ebebeb"></rect><rect x="354.46" y="209.86" width="76.14" height="4.77" style="fill:#20C160"></rect><path d="M334,211.45a1.29,1.29,0,0,1,1.29-1.29,1.27,1.27,0,0,1,1.27,1.15h0c0,.1,0,.21,0,.31a3.14,3.14,0,0,1-.18,1.08,1.87,1.87,0,0,1-.69.91,1.48,1.48,0,0,1-.79.25.3.3,0,0,1-.31-.28.31.31,0,0,1,.29-.31.92.92,0,0,0,.49-.15,1,1,0,0,0,.34-.37l.07-.14a1.26,1.26,0,0,1-.51.11A1.28,1.28,0,0,1,334,211.45Zm.59,0a.7.7,0,1,0,1.39,0,.7.7,0,1,0-1.39,0Z" style="fill:#263238"></path><path d="M337.4,212a2.18,2.18,0,0,1,.36-1.27,1.18,1.18,0,0,1,1-.59,1.19,1.19,0,0,1,1,.59,2.26,2.26,0,0,1,.36,1.27,2.23,2.23,0,0,1-.36,1.26,1.19,1.19,0,0,1-1,.59,1.18,1.18,0,0,1-1-.59A2.15,2.15,0,0,1,337.4,212Zm2.09,0a1.72,1.72,0,0,0-.26-.94.6.6,0,0,0-.49-.33.65.65,0,0,0-.5.33,1.72,1.72,0,0,0-.26.94,1.74,1.74,0,0,0,.26.94.66.66,0,0,0,.5.32.61.61,0,0,0,.49-.32A1.74,1.74,0,0,0,339.49,212Z" style="fill:#263238"></path><path d="M341.11,211.08h0a.89.89,0,0,1,.87-.95.88.88,0,0,1,.87.94h0a.9.9,0,0,1-.88,1A.89.89,0,0,1,341.11,211.08Zm1.27,0h0c0-.3-.17-.54-.41-.54s-.39.24-.39.53h0c0,.3.17.54.4.54S342.38,211.37,342.38,211.08Zm-.67,2.48,2.44-3.33a.19.19,0,0,1,.18-.09.21.21,0,0,1,.21.2.2.2,0,0,1-.05.14l-2.43,3.32a.21.21,0,0,1-.19.1.2.2,0,0,1-.2-.21A.25.25,0,0,1,341.71,213.56Zm1.64-.58h0a.87.87,0,1,1,1.74,0h0a.87.87,0,1,1-1.74,0Zm1.27,0h0c0-.3-.17-.54-.4-.54s-.4.24-.4.53h0c0,.3.17.54.41.54S344.62,213.26,344.62,213Z" style="fill:#263238"></path><rect x="350.78" y="190.54" width="101.48" height="11.03" style="fill:#ebebeb"></rect><rect x="354.46" y="193.67" width="68.43" height="4.77" style="fill:#455a64"></rect><path d="M336.47,196.42a1.27,1.27,0,1,1-2-1,.87.87,0,0,1-.18-.53.88.88,0,0,1,.88-.86.87.87,0,0,1,.7,1.39A1.26,1.26,0,0,1,336.47,196.42Zm-.57,0a.69.69,0,1,0-.69.69A.7.7,0,0,0,335.9,196.42Zm-1-1.58a.3.3,0,0,0,.3.31.31.31,0,0,0,.3-.31.31.31,0,0,0-.3-.29A.3.3,0,0,0,334.91,194.84Z" style="fill:#263238"></path><path d="M337.33,195.83a2.34,2.34,0,0,1,.36-1.27,1.2,1.2,0,0,1,1-.58,1.18,1.18,0,0,1,1,.58,2.26,2.26,0,0,1,.35,1.27,2.28,2.28,0,0,1-.35,1.27,1.21,1.21,0,0,1-1,.58,1.22,1.22,0,0,1-1-.58A2.37,2.37,0,0,1,337.33,195.83Zm2.1,0a1.72,1.72,0,0,0-.26-.94.54.54,0,0,0-1,0,1.83,1.83,0,0,0,0,1.88.54.54,0,0,0,1,0A1.72,1.72,0,0,0,339.43,195.83Z" style="fill:#263238"></path><path d="M341,194.89h0a.9.9,0,0,1,.88-.95.88.88,0,0,1,.87.94h0a.88.88,0,1,1-1.75,0Zm1.28,0h0c0-.3-.17-.54-.41-.54s-.4.24-.4.53h0c0,.3.17.54.41.54S342.32,195.18,342.32,194.89Zm-.67,2.48,2.43-3.33a.22.22,0,0,1,.4.11.26.26,0,0,1-.05.14L342,197.62a.25.25,0,0,1-.19.09.21.21,0,0,1-.21-.21A.19.19,0,0,1,341.65,197.37Zm1.63-.58h0a.9.9,0,0,1,.88-.95.89.89,0,0,1,.87.94h0a.9.9,0,0,1-.88.95A.89.89,0,0,1,343.28,196.79Zm1.28,0h0c0-.3-.17-.54-.41-.54s-.4.24-.4.53h0c0,.3.17.54.41.54S344.56,197.07,344.56,196.79Z" style="fill:#263238"></path><rect x="350.78" y="174.36" width="101.48" height="11.03" style="fill:#ebebeb"></rect><rect x="354.46" y="177.48" width="58.09" height="4.77" style="fill:#20C160"></rect><path d="M336.37,178.19,335,181.32a.27.27,0,0,1-.27.18l-.11,0a.31.31,0,0,1-.16-.38l1.15-2.72h-1.37a.3.3,0,0,1-.29-.3.29.29,0,0,1,.29-.29h1.87l.11.05h0l0,0s0,0,0,0l0,0v0l0,0v0s0,0,0,0a.24.24,0,0,1,0,.12A.43.43,0,0,1,336.37,178.19Z" style="fill:#263238"></path><path d="M337,179.64a2.25,2.25,0,0,1,.36-1.26,1.11,1.11,0,0,1,2,0,2.4,2.4,0,0,1,0,2.53,1.11,1.11,0,0,1-2,0A2.26,2.26,0,0,1,337,179.64Zm2.09,0a1.74,1.74,0,0,0-.25-.94.62.62,0,0,0-.49-.32.63.63,0,0,0-.51.32,1.74,1.74,0,0,0-.25.94,1.72,1.72,0,0,0,.25.94.65.65,0,0,0,.51.33.63.63,0,0,0,.49-.33A1.72,1.72,0,0,0,339.09,179.64Z" style="fill:#263238"></path><path d="M340.71,178.71h0a.88.88,0,1,1,1.75,0v0a.88.88,0,1,1-1.75,0Zm1.27,0h0c0-.3-.17-.55-.4-.55s-.4.25-.4.53v0c0,.3.17.54.41.54S342,179,342,178.71Zm-.66,2.47,2.43-3.32a.19.19,0,0,1,.18-.1.21.21,0,0,1,.21.21.24.24,0,0,1-.05.14l-2.43,3.32a.21.21,0,0,1-.18.09.2.2,0,0,1-.21-.2A.24.24,0,0,1,341.32,181.18Zm1.63-.58h0a.88.88,0,1,1,1.75,0h0a.9.9,0,0,1-.88.95A.89.89,0,0,1,343,180.6Zm1.28,0h0c0-.29-.17-.54-.41-.54s-.4.25-.4.53h0c0,.3.17.54.41.54S344.23,180.89,344.23,180.6Z" style="fill:#263238"></path></g><g id="freepik--chart-1--inject-58"><path d="M172,77.66a49.82,49.82,0,0,1-31.8,46.27l-4.67,1.79-.43-1.13-.89.34A49.56,49.56,0,1,1,116.46,29.1h1v-1h5A49.51,49.51,0,0,1,172,77.66Z" style="fill:#fff"></path><path d="M172,77.66c-.06,22.67-15.05,41.45-36.41,48.22l-.16.07-.06-.16-.44-1.13c-12.3,5.9-29.88,4.76-42.46-2.21a49.83,49.83,0,0,1,25-93.61l-.26.26V27.84a94.49,94.49,0,0,1,10.63.37c24.78,2.6,44.49,24.49,44.19,49.45Zm0,0c.19-21-14.11-40.63-34.17-46.9a47.53,47.53,0,0,0-10.07-2.13,88.63,88.63,0,0,0-10.32-.27l.26-.26c0,.31,0,1,0,1.27a62.86,62.86,0,0,0-11.12,1,49.75,49.75,0,0,0-36.77,33c-4.75,14.67-2.31,31.57,6.9,44,13.85,19,37.08,25,58.56,17.12l.42,1.13-.22-.1c21.5-6.63,36.32-25.16,36.53-47.9Z" style="fill:#263238"></path><path d="M132.43,120.27a44.56,44.56,0,1,1-16-86.17V78.66Z" style="fill:#20C160"></path><path d="M167,77.66a44.55,44.55,0,0,1-28.59,41.61l-16-41.61V33.1A44.52,44.52,0,0,1,167,77.66Z" style="fill:#455a64"></path><path d="M96.52,54.3l.21.05a2,2,0,0,1,1.6,1.94A2,2,0,0,1,95,57.86a1.89,1.89,0,0,1-.65-2.07A2,2,0,0,1,96,54.33l.1,0Z" style="fill:#fff"></path><path d="M96.49,74.64V71.28c0-.17,0-.17-.16-.17s-.25,0-.25.24c0,2.19,0,4.37,0,6.56a1.1,1.1,0,0,1-.43.89.64.64,0,0,1-.46.17.82.82,0,0,0-.27,0c-.39,0-.82-.42-.84-.8,0-.17,0-.35,0-.52v-6.3a.48.48,0,0,1,0-.12c0-.09,0-.13-.13-.12H91.7c-.18,0-.18,0-.13-.18l2-6.81c.23-.78.45-1.55.67-2.33,0-.14,0-.14-.1-.14-.33,0-.27,0-.36.26-.48,1.69-1,3.38-1.45,5.08a.83.83,0,0,1-.61.65.9.9,0,0,1-.91-.28.75.75,0,0,1-.16-.78c.17-.61.35-1.22.53-1.83.37-1.31.74-2.61,1.13-3.91a2.75,2.75,0,0,1,1.35-1.74,2.24,2.24,0,0,1,1.1-.3h3a2.55,2.55,0,0,1,2.3,1.38,5.68,5.68,0,0,1,.49,1.38c.47,1.62.93,3.24,1.4,4.86a1.71,1.71,0,0,1,0,.71.7.7,0,0,1-.53.48.86.86,0,0,1-1.13-.61c-.48-1.75-1-3.49-1.49-5.23a.14.14,0,0,0-.16-.13c-.3,0-.3,0-.22.29.72,2.52,1.45,5,2.17,7.56L101,71c0,.16,0,.16-.12.16H98.66c-.16,0-.16,0-.16.17,0,2.24,0,4.49,0,6.73a1,1,0,0,1-.53.9.4.4,0,0,1-.24,0h-.25a1,1,0,0,1-1-1Z" style="fill:#fff"></path><path d="M90.17,90.31a2.91,2.91,0,0,1-5.81.3s0,0,0,0c0-.23,0-.45,0-.68a7,7,0,0,1,.42-2.46,4.2,4.2,0,0,1,1.54-2,3.49,3.49,0,0,1,1.8-.57.68.68,0,0,1,.7.64.71.71,0,0,1-.65.7,2.18,2.18,0,0,0-1.13.33,2.45,2.45,0,0,0-.75.84,3,3,0,0,0-.16.31,2.91,2.91,0,0,1,4.07,2.67Zm-1.33,0a1.58,1.58,0,1,0-3.16,0,1.58,1.58,0,0,0,3.16,0Z" style="fill:#fff"></path><path d="M96.47,88.12a2.94,2.94,0,0,1,.87,2.11,3,3,0,0,1-.87,2.1,3,3,0,0,1-2.1.88h0a2.89,2.89,0,0,1-2.09-.88.65.65,0,0,1,0-1,.69.69,0,0,1,1,0,1.61,1.61,0,0,0,2.29,0A1.63,1.63,0,0,0,96,90.23a1.58,1.58,0,0,0-.48-1.15,1.56,1.56,0,0,0-1.14-.47,1.6,1.6,0,0,0-1.15.47.67.67,0,0,1-1,0l-.13-.15s0,0,0,0a.11.11,0,0,0,0-.06s0-.06,0-.08,0,0,0,0a.34.34,0,0,1,0-.2l.36-3.11a.71.71,0,0,1,.3-.48l0,0s0,0,0,0a.78.78,0,0,1,.31-.07h3.54a.68.68,0,1,1,0,1.36h-3l-.14,1.19a2.76,2.76,0,0,1,.8-.11A2.94,2.94,0,0,1,96.47,88.12Z" style="fill:#fff"></path><path d="M99.18,86.89v0a2,2,0,0,1,2-2.14,2,2,0,0,1,2,2.12v0a2,2,0,1,1-4,0Zm2.89,0v0c0-.67-.38-1.22-.92-1.22s-.9.55-.9,1.2v0c0,.69.38,1.23.92,1.23S102.07,87.53,102.07,86.89Zm-1.51,5.6L106.07,85a.44.44,0,0,1,.4-.22.47.47,0,0,1,.48.47.52.52,0,0,1-.1.31l-5.51,7.52a.48.48,0,0,1-.89-.25A.53.53,0,0,1,100.56,92.49Zm3.7-1.31v0a2,2,0,1,1,3.95,0v0a2,2,0,0,1-2,2.14A2,2,0,0,1,104.26,91.18Zm2.89,0v0c0-.67-.39-1.23-.93-1.23s-.9.56-.9,1.2v0c0,.68.39,1.22.93,1.22S107.15,91.83,107.15,91.18Z" style="fill:#fff"></path><g id="freepik--1jhwpttif--inject-58"><path d="M139.9,61.22a2.91,2.91,0,0,1,.22-.78,2.5,2.5,0,0,1,2.31-1.55c1.54,0,3.08,0,4.62,0a2.6,2.6,0,0,1,2.51,2.33,3.62,3.62,0,0,1,0,.46v6a.88.88,0,1,1-1.76.07V62.34c0-.28,0-.25-.25-.25h-.07c-.11,0-.15,0-.14.14a.57.57,0,0,1,0,.13V77.75a1.19,1.19,0,0,1-.68,1.14.44.44,0,0,1-.23.06c-.14,0-.28,0-.42,0a.91.91,0,0,1-.8-.4,1.21,1.21,0,0,1-.25-.78V68.83c0-.11,0-.15-.13-.15-.35,0-.35,0-.35.34v8.75a1.19,1.19,0,0,1-.68,1.13l-.06,0a1.67,1.67,0,0,1-1.12-.11,1.17,1.17,0,0,1-.52-1V62.3c0-.21,0-.21-.22-.21s-.24,0-.24.23v5.4a.87.87,0,0,1-.58.85A.86.86,0,0,1,140,68s0-.09,0-.13Z" style="fill:#fff"></path><path d="M144.74,58.36a2,2,0,1,1,2-2A2,2,0,0,1,144.74,58.36Z" style="fill:#fff"></path></g><path d="M139.16,91a.66.66,0,0,1-.68.66h-.12v.91a.66.66,0,0,1-1.32,0v-.91h-3.77a.58.58,0,0,1-.41-.15.64.64,0,0,1-.11-.92l4.44-5.52,0,0,0,0a.09.09,0,0,0,.06,0l.05,0s0,0,.07,0a0,0,0,0,1,0,0l.07,0h.31s0,0,.07,0h0l.06,0,.06,0s0,0,0,0,0,0,0,0l0,0,0,0a.16.16,0,0,1,.05.06.08.08,0,0,0,0,0,.19.19,0,0,1,0,.08v0a.19.19,0,0,1,0,.08s0,0,0,.06v4.88h.12A.67.67,0,0,1,139.16,91ZM137,87.36l-2.38,3H137Z" style="fill:#fff"></path><path d="M145.13,88.12a3,3,0,0,1,0,4.21,2.91,2.91,0,0,1-2.1.88h0a2.92,2.92,0,0,1-2.09-.88.67.67,0,0,1,0-1,.69.69,0,0,1,1,0,1.61,1.61,0,0,0,2.29,0,1.59,1.59,0,0,0,.48-1.14,1.54,1.54,0,0,0-.48-1.15,1.56,1.56,0,0,0-1.14-.47,1.62,1.62,0,0,0-1.15.47.67.67,0,0,1-1,0s-.08-.11-.13-.15,0,0,0,0a.11.11,0,0,0,0-.06s0-.06,0-.08,0,0,0,0a.67.67,0,0,1,0-.2l.36-3.11a.74.74,0,0,1,.3-.48l.05,0s0,0,0,0a.83.83,0,0,1,.32-.07h3.53a.68.68,0,1,1,0,1.36h-2.95l-.14,1.19a2.76,2.76,0,0,1,.8-.11A2.9,2.9,0,0,1,145.13,88.12Z" style="fill:#fff"></path><path d="M147.85,86.89v0a2,2,0,0,1,2-2.14,2,2,0,0,1,2,2.12v0a2,2,0,0,1-2,2.15A2,2,0,0,1,147.85,86.89Zm2.89,0v0c0-.67-.39-1.22-.93-1.22s-.9.55-.9,1.2v0c0,.69.39,1.23.93,1.23S150.74,87.53,150.74,86.89Zm-1.51,5.6,5.5-7.52a.46.46,0,0,1,.41-.22.48.48,0,0,1,.48.47.53.53,0,0,1-.11.31L150,93.05a.5.5,0,0,1-.42.22.46.46,0,0,1-.47-.47A.53.53,0,0,1,149.23,92.49Zm3.69-1.31v0a2,2,0,1,1,4,0v0a2,2,0,0,1-2,2.14A2,2,0,0,1,152.92,91.18Zm2.89,0v0c0-.67-.38-1.23-.92-1.23s-.9.56-.9,1.2v0c0,.68.38,1.22.92,1.22S155.81,91.83,155.81,91.18Z" style="fill:#fff"></path></g><g id="freepik--Megaphone--inject-58"><polygon points="219.16 230.66 232.63 223.53 211.97 184.52 194.93 193.54 219.16 230.66" style="fill:#20C160"></polygon><polygon points="194.93 193.54 204.17 207.7 219.17 230.66 232.64 223.53 211.98 184.51 194.93 193.54" style="fill:#20C160"></polygon><polygon points="194.93 193.54 204.17 207.7 219.17 230.66 232.64 223.53 211.98 184.51 194.93 193.54" style="fill:#fff;opacity:0.2"></polygon><polygon points="194.93 193.54 201.02 202.88 218.27 196.4 211.98 184.51 194.93 193.54" style="opacity:0.1"></polygon><rect x="190.74" y="177.61" width="24" height="18.23" transform="translate(469.28 256.87) rotate(152.1)" style="fill:#20C160"></rect><rect x="190.74" y="177.61" width="24" height="18.23" transform="translate(469.28 256.87) rotate(152.1)" style="opacity:0.2"></rect><polygon points="170.55 185.92 187.89 178.84 174.09 152.77 158.49 163.14 170.55 185.92" style="fill:#20C160"></polygon><g style="opacity:0.2"><polygon points="170.55 185.92 187.89 178.84 174.09 152.77 158.49 163.14 170.55 185.92" style="fill:#fff"></polygon></g><polygon points="179.83 143.12 200.2 181.59 229.6 170.27 306.39 159.88 257.47 67.48 205.72 125.17 179.83 143.12" style="fill:#20C160"></polygon><polygon points="179.83 143.12 200.2 181.59 229.6 170.27 306.39 159.88 257.47 67.48 205.72 125.17 179.83 143.12" style="fill:#fff;opacity:0.2"></polygon><path d="M306.4,159.88l-76.8,10.38-29.4,11.33L195,171.71c9-2.48,32.69-9,33.22-9Z" style="opacity:0.1"></path><ellipse cx="283.43" cy="112.89" rx="16.89" ry="52.54" transform="translate(-19.88 145.76) rotate(-27.9)" style="fill:#20C160"></ellipse><path d="M271.56,118.15c12.05,22.76,27.3,38.32,34,34.75s2.45-24.93-9.6-47.69S268.7,66.89,262,70.47,259.51,95.39,271.56,118.15Z" style="opacity:0.2"></path><path d="M273.55,117.1c1.61,3,3.27,5.93,5,8.67a10.31,10.31,0,0,0,6.91-1,10.43,10.43,0,0,0,4.33-14.11l-2.31-4.35a10.41,10.41,0,0,0-18.77.71C270.11,110.3,271.75,113.69,273.55,117.1Z" style="fill:#20C160"></path><path d="M273.55,117.1c1.61,3,3.27,5.93,5,8.67a10.31,10.31,0,0,0,6.91-1,10.43,10.43,0,0,0,4.33-14.11l-2.31-4.35a10.41,10.41,0,0,0-18.77.71C270.11,110.3,271.75,113.69,273.55,117.1Z" style="fill:#fff;opacity:0.2"></path><polygon points="186.42 191.62 219.96 177.93 193.27 127.52 163.09 147.57 186.42 191.62" style="fill:#20C160"></polygon><g style="opacity:0.1"><polygon points="186.42 191.62 219.96 177.93 193.27 127.52 163.09 147.57 186.42 191.62"></polygon></g><path d="M255.46,72.15c-1,4.18-.69,8.56-.17,12.8a81.82,81.82,0,0,0,2.85,12.56c.58,2.07,1.35,4.08,2.05,6.11s1.55,4,2.4,6,1.7,4,2.65,5.87,1.85,3.87,2.84,5.77A141.81,141.81,0,0,0,281.84,143a73.83,73.83,0,0,0,8.78,9.42c3.27,2.75,6.83,5.38,11,6.56-4.05-1.44-7.47-4.13-10.57-7a72.91,72.91,0,0,1-8.44-9.55,150,150,0,0,1-13.42-21.72A154.68,154.68,0,0,1,259,97.23a82.49,82.49,0,0,1-3.16-12.37A37.18,37.18,0,0,1,255.46,72.15Z" style="opacity:0.2"></path><path d="M289.49,56c-1.52,2.27-2.92,4.61-4.3,7s-2.7,4.72-4,7.1-2.56,4.8-3.76,7.24L275.63,81c-.56,1.24-1.15,2.47-1.68,3.73.77-1.13,1.47-2.3,2.21-3.44l2.09-3.51c1.4-2.34,2.71-4.72,4-7.1s2.56-4.8,3.76-7.24S288.42,58.56,289.49,56Z" style="fill:#263238"></path><path d="M299.51,136.42c3.07-.18,6.13-.49,9.17-.82s6.09-.74,9.13-1.15,6.07-.89,9.09-1.43l4.52-.82c1.51-.31,3-.59,4.52-.94-1.54.08-3.07.23-4.6.35l-4.58.47c-3.05.32-6.09.73-9.12,1.15s-6.07.89-9.09,1.43S302.51,135.74,299.51,136.42Z" style="fill:#263238"></path><path d="M350,108.89c-4.39,1-8.74,2.22-13.08,3.41s-8.68,2.46-13,3.73-8.63,2.61-12.91,4l-6.43,2.1c-2.13.74-4.27,1.44-6.39,2.22,2.2-.51,4.37-1.1,6.56-1.64l6.53-1.77c4.35-1.19,8.67-2.46,13-3.74s8.63-2.61,12.92-4S345.72,110.42,350,108.89Z" style="fill:#263238"></path><path d="M313.71,49.16c-2.9,3.54-5.7,7.16-8.48,10.79s-5.5,7.3-8.21,11-5.38,7.4-8,11.15l-3.91,5.63c-1.27,1.91-2.57,3.79-3.8,5.72,1.46-1.77,2.86-3.57,4.29-5.36l4.19-5.43c2.79-3.62,5.5-7.3,8.21-11s5.37-7.39,8-11.15S311.22,53,313.71,49.16Z" style="fill:#263238"></path><path d="M291.09,108.38c4.76-2.29,9.45-4.71,14.14-7.14s9.32-4.95,14-7.43,9.26-5.07,13.85-7.68l6.87-3.92c2.27-1.35,4.56-2.66,6.81-4-2.38,1.14-4.73,2.35-7.1,3.52l-7,3.62c-4.68,2.43-9.32,5-14,7.43s-9.25,5.07-13.84,7.68S295.6,105.64,291.09,108.38Z" style="fill:#263238"></path></g><g id="freepik--speech-bubble--inject-58"><path d="M171.26,123.17A22.2,22.2,0,0,1,135.83,141L125,143.77l4.53-10.13a22.2,22.2,0,1,1,41.78-10.47Z" style="fill:#fff"></path><path d="M171.26,123.17c.16,12.84-11.36,23.45-24.14,22.36a22.52,22.52,0,0,1-11.51-4.25l.31.06-10.86,2.86-.88.23.37-.84L129,133.45v.42c-5.13-9.11-2.63-21.43,5.47-28,14.57-12,36.73-1.63,36.74,17.26Zm0,0c.06-14.19-13.82-25-27.53-21.25-13.54,3.37-20.52,19.26-13.83,31.5l.11.21-.09.21L125.35,144l-.51-.6,10.9-2.7.17,0,.13.1a21.82,21.82,0,0,0,11.12,4.35,22.13,22.13,0,0,0,24.1-21.89Z" style="fill:#263238"></path><polygon points="145.46 136.38 135.51 126.31 138.85 123.01 144.66 128.89 156.74 109.96 160.7 112.48 145.46 136.38" style="fill:#20C160"></polygon></g></svg>
