<svg xmlns="http://www.w3.org/2000/svg" viewBox="0 0 750 500"><g id="freepik--background-complete--inject-53"><path d="M438.88,405h39.83a4.88,4.88,0,0,1,4.88,4.88v48.25a4.88,4.88,0,0,1-4.88,4.88H438.88a13.31,13.31,0,0,1-13.31-13.31V418.29A13.31,13.31,0,0,1,438.88,405Z" style="fill:#e0e0e0"></path><rect x="415.16" y="404.98" width="58.02" height="58.02" rx="4.05" style="fill:#ebebeb"></rect><polygon points="446.68 448.7 429.1 436.94 433.2 430.81 444.99 438.69 459.65 419.28 465.54 423.73 446.68 448.7" style="fill:#e0e0e0"></polygon><path d="M264.41,418.55a40.49,40.49,0,1,1-41.14-40A40.64,40.64,0,0,1,264.41,418.55Zm-59.84,1a19.36,19.36,0,1,0,19-19.76A19.42,19.42,0,0,0,204.57,419.52Z" style="fill:#ebebeb"></path><path d="M264.41,418.55a40.64,40.64,0,0,1-39.84,41.32l-.34-21.22a19.45,19.45,0,0,0-.62-38.89l-.34-21.22A40.63,40.63,0,0,1,264.41,418.55Z" style="fill:#e0e0e0"></path><path d="M228.21,463.14c-26.12.42-47-19.85-47.37-46.08l24.72-.4c.2,12.54,9.74,20.44,22.23,20.24Z" style="fill:#f5f5f5"></path><path d="M696.9,66.8a31.61,31.61,0,1,1-32.12-31.24A31.74,31.74,0,0,1,696.9,66.8Zm-46.72.75a15.11,15.11,0,1,0,14.87-15.42A15.15,15.15,0,0,0,650.18,67.55Z" style="fill:#ebebeb"></path><path d="M696.9,66.8a31.74,31.74,0,0,1-31.1,32.27l-.27-16.58a15.18,15.18,0,0,0-.48-30.36l-.27-16.57A31.71,31.71,0,0,1,696.9,66.8Z" style="fill:#e0e0e0"></path><path d="M668.64,101.61a36.12,36.12,0,0,1-37-36l19.3-.31c.16,9.8,7.61,16,17.36,15.81Z" style="fill:#f5f5f5"></path><path d="M54.1,218.12h7.4V199.59h5.17l.55-6.21H61.5v-3.53c0-1.47.3-2,1.71-2h4v-6.44H62.09c-5.5,0-8,2.42-8,7.06v4.95H50.25v6.28H54.1Z" style="fill:#ebebeb"></path><path d="M205.89,56.57,235.67,52A30.14,30.14,0,1,1,209.2,26.63Z" style="fill:#f5f5f5"></path><path d="M215.56,26.72l-3.62,23.09,22.66-4.26S231.27,32.61,215.56,26.72Z" style="fill:#e0e0e0"></path><path d="M110.85,274.67H45.06a17.49,17.49,0,0,0-17.49,17.48v39.76a17.49,17.49,0,0,0,17.49,17.48H69.18L78,362l8.77-12.63h24.13a17.49,17.49,0,0,0,17.48-17.48V292.15A17.49,17.49,0,0,0,110.85,274.67Z" style="fill:#fff"></path><path d="M110.85,274.67a15.47,15.47,0,0,1,2.27.1,16.94,16.94,0,0,1,6.26,2,19.1,19.1,0,0,1,3.87,2.87,18,18,0,0,1,3.38,4.66,17.42,17.42,0,0,1,1.82,6.4c.15,2.39.05,4.87.09,7.51,0,5.27,0,11.07,0,17.36q0,4.71,0,9.78c0,1.69,0,3.4,0,5.15a22.62,22.62,0,0,1-.44,5.34,17.75,17.75,0,0,1-16.51,13.83c-8,.09-16.3,0-24.94.06l.28-.15-8.76,12.64-.29.4-.28-.4L68.9,349.59l.28.15H47.36a41.78,41.78,0,0,1-4.32-.12,18,18,0,0,1-8-3,18.41,18.41,0,0,1-5.66-6.28,18.09,18.09,0,0,1-2.1-8V300.94c0-2.5,0-5,0-7.4a20,20,0,0,1,1-7.19,17.77,17.77,0,0,1,15.47-11.9c2.19-.13,4.26,0,6.33-.05l11.87,0,35.8.11,9.73.07,2.53,0c.58,0,.87,0,.87,0l-.87,0-2.53,0-9.73.07-35.8.11-11.87,0c-2,0-4.19-.06-6.29.08a17.19,17.19,0,0,0-14.92,11.53,19.37,19.37,0,0,0-.95,7c0,2.44,0,4.9,0,7.4,0,10,0,20.48,0,31.36A17.44,17.44,0,0,0,30,340a17.75,17.75,0,0,0,5.44,6,17.56,17.56,0,0,0,7.72,2.86,39.58,39.58,0,0,0,4.24.12h22l.1.15,8.77,12.64h-.57l8.78-12.63.1-.14h.17c8.62,0,17,.05,24.91,0a17.18,17.18,0,0,0,16-13.33,21.77,21.77,0,0,0,.44-5.21c0-1.75,0-3.46,0-5.15q0-5.07,0-9.78c0-6.29,0-12.09,0-17.36,0-2.63.09-5.15-.05-7.48a17.15,17.15,0,0,0-1.73-6.29,18.23,18.23,0,0,0-3.29-4.61,18.45,18.45,0,0,0-3.78-2.86,17,17,0,0,0-6.16-2.08,16.81,16.81,0,0,0-1.69-.16Z" style="fill:#e0e0e0"></path><path d="M64.39,313.05a5.66,5.66,0,1,1-5.65-5.66A5.66,5.66,0,0,1,64.39,313.05Z" style="fill:#e0e0e0"></path><path d="M83,313.05a5.66,5.66,0,1,1-5.66-5.66A5.67,5.67,0,0,1,83,313.05Z" style="fill:#e0e0e0"></path><path d="M101.64,313.05A5.66,5.66,0,1,1,96,307.39,5.67,5.67,0,0,1,101.64,313.05Z" style="fill:#e0e0e0"></path><path d="M623.75,118.11H571.61A13.86,13.86,0,0,0,557.75,132v31.5a13.86,13.86,0,0,0,13.86,13.86h19.12l6.95,10,7-10h19.12a13.85,13.85,0,0,0,13.86-13.86V132A13.85,13.85,0,0,0,623.75,118.11Z" style="fill:#fff"></path><path d="M623.75,118.11a12.16,12.16,0,0,1,1.8.08,13.52,13.52,0,0,1,5,1.58,15.06,15.06,0,0,1,3.06,2.28,14.65,14.65,0,0,1,2.69,3.69,14,14,0,0,1,1.43,5.08c.12,1.89,0,3.85.08,5.94,0,4.18,0,8.78,0,13.76,0,2.5,0,5.08,0,7.76v4.08a18,18,0,0,1-.35,4.23,14.09,14.09,0,0,1-13.08,11c-6.34.07-12.92,0-19.77,0l.22-.12-6.94,10-.23.32-.22-.32-7-10,.22.12H573.44a33,33,0,0,1-3.43-.1,14.49,14.49,0,0,1-6.37-2.36,14.73,14.73,0,0,1-4.48-5,14.48,14.48,0,0,1-1.66-6.38V133.07a16,16,0,0,1,.79-5.71,14.07,14.07,0,0,1,12.26-9.42c1.73-.1,3.38,0,5,0l9.4,0,28.38.09,7.71,0,2,0,.68,0-.68,0-2,0-7.71,0-28.38.09h-9.4c-1.63,0-3.32,0-5,.06a13.64,13.64,0,0,0-11.83,9.14,15.33,15.33,0,0,0-.76,5.55c0,1.93,0,3.88,0,5.86,0,7.92,0,16.23,0,24.85a13.82,13.82,0,0,0,1.61,6.13,14.18,14.18,0,0,0,4.31,4.78,13.87,13.87,0,0,0,6.11,2.27,31.32,31.32,0,0,0,3.37.09h17.44l.08.11,6.95,10h-.45l6.95-10,.08-.11h.14c6.84,0,13.45,0,19.74,0a13.49,13.49,0,0,0,8.29-3.29,13.67,13.67,0,0,0,4.38-7.27,17.43,17.43,0,0,0,.35-4.13c0-1.39,0-2.75,0-4.08,0-2.68,0-5.26,0-7.76,0-5,0-9.58,0-13.76,0-2.08.07-4.08,0-5.92a13.73,13.73,0,0,0-1.38-5,14.42,14.42,0,0,0-2.6-3.66,15.1,15.1,0,0,0-3-2.27,13.64,13.64,0,0,0-4.89-1.65,13,13,0,0,0-1.33-.12Z" style="fill:#e0e0e0"></path><path d="M586.94,148.53a4.49,4.49,0,1,1-4.49-4.49A4.49,4.49,0,0,1,586.94,148.53Z" style="fill:#e0e0e0"></path><path d="M601.7,148.53a4.49,4.49,0,1,1-4.49-4.49A4.49,4.49,0,0,1,601.7,148.53Z" style="fill:#e0e0e0"></path><path d="M616.45,148.53A4.49,4.49,0,1,1,612,144,4.48,4.48,0,0,1,616.45,148.53Z" style="fill:#e0e0e0"></path><path d="M674.4,167.36a18.63,18.63,0,0,0,10.07,2.95c12.2,0,19.09-10.3,18.68-19.55a13.22,13.22,0,0,0,3.27-3.4,12.84,12.84,0,0,1-3.77,1,6.56,6.56,0,0,0,2.89-3.64,13.18,13.18,0,0,1-4.17,1.6,6.57,6.57,0,0,0-11.2,6,18.65,18.65,0,0,1-13.54-6.86,6.58,6.58,0,0,0,2,8.77,6.62,6.62,0,0,1-3-.82A6.57,6.57,0,0,0,681,160a6.58,6.58,0,0,1-3,.11,6.59,6.59,0,0,0,6.14,4.57A13.24,13.24,0,0,1,674.4,167.36Z" style="fill:#ebebeb"></path></g><g id="freepik--Floor--inject-53"><path d="M709.62,463.65h-1.69l-4.95,0-19-.18-70-.55c-29.57-.2-64.77-.29-103.85-.37l-127.16.06-231,.82-70,.24-19,0h-5c-1.11,0-1.68,0-1.68,0l1.68,0,5-.05,19-.13,70-.41c59.13-.32,140.81-.76,231.05-1C428,462,471,462,510.08,462s74.29.24,103.85.49l39.89.35,30.13.36,19,.28,4.95.08Z" style="fill:#263238"></path></g><g id="freepik--speech-bubble--inject-53"><path d="M110.5,126.43l-2.4-8a28,28,0,1,0-6.69,7.44v0Z" style="fill:#fafafa"></path><path d="M110.5,126.43s-.18,0-.57,0l-1.72-.08-6.82-.35a.12.12,0,0,1-.11-.13.19.19,0,0,1,0-.07h0l.17.17a28.1,28.1,0,0,1-31.11,2.25,28.1,28.1,0,0,1-7.24-42.92,27.8,27.8,0,0,1,11.14-7.77,28.58,28.58,0,0,1,12.85-1.73,28.12,28.12,0,0,1,25.24,29.64,27.77,27.77,0,0,1-4.16,13v-.09l1.73,6c.18.66.33,1.16.43,1.53s.14.51.13.5-.07-.18-.18-.53l-.49-1.55c-.43-1.37-1-3.35-1.84-5.91a.09.09,0,0,1,0-.09A27.68,27.68,0,0,0,74.47,78a27.22,27.22,0,0,0-10.91,7.62A27.62,27.62,0,0,0,80,131.11a27.32,27.32,0,0,0,8.84,0,28,28,0,0,0,12.49-5.38.12.12,0,0,1,.17,0,.11.11,0,0,1,0,.15h0l-.08-.2,6.72.5,1.76.14Z" style="fill:#263238"></path><path d="M76.47,103.79A2.83,2.83,0,1,1,73.64,101,2.82,2.82,0,0,1,76.47,103.79Z" style="fill:#263238"></path><path d="M87.81,103.79A2.83,2.83,0,1,1,85,101,2.82,2.82,0,0,1,87.81,103.79Z" style="fill:#263238"></path><path d="M99.13,102.37a2.84,2.84,0,1,1-3.87-1A2.84,2.84,0,0,1,99.13,102.37Z" style="fill:#263238"></path></g><g id="freepik--Like--inject-53"><path d="M365.33,391h0s-.05,1.5-.08,4.13a18,18,0,0,0-6.19-3.68h0s-12.49-7.74-18.2-17.6A53,53,0,0,1,335.35,358c0-.43,0-4.23-.08-7.34a4.76,4.76,0,0,0-4.62-4.69c-5.36-.19-19.63.31-20.64,10.21-1.5,14.77,9.48,27.81,10.37,32.06.17.8.31,1.45.42,2-4.22,0-7.48.05-7.48.12h0l-27.72,0s-9.3-.62-10.22,9,9.88,10.22,9.88,10.22-4.8.89-4.21,9.29,9.88,9,9.88,9-5.4.89-5.12,8.39c.28,7.3,9.95,9.5,10.46,9.61a19.28,19.28,0,0,0-2.19.09,10,10,0,0,0,1.7.09c-3.93,1.46-3.4,6.42-3.4,6.42-.32,10.5,7.78,10.81,7.78,10.81l50.62.1a28.33,28.33,0,0,0,14.35-3.88c0,2.15,0,3.36.05,3.36h0l35.36.07c.07,0,.16-16.08.2-35.91s0-35.92-.07-35.92Z" style="fill:#43A161"></path><g style="opacity:0.30000000000000004"><path d="M365.33,391h0s-.05,1.5-.08,4.13a18,18,0,0,0-6.19-3.68h0s-12.49-7.74-18.2-17.6A53,53,0,0,1,335.35,358c0-.43,0-4.23-.08-7.34a4.76,4.76,0,0,0-4.62-4.69c-5.36-.19-19.63.31-20.64,10.21-1.5,14.77,9.48,27.81,10.37,32.06.17.8.31,1.45.42,2-4.22,0-7.48.05-7.48.12h0l-27.72,0s-9.3-.62-10.22,9,9.88,10.22,9.88,10.22-4.8.89-4.21,9.29,9.88,9,9.88,9-5.4.89-5.12,8.39c.28,7.3,9.95,9.5,10.46,9.61a19.28,19.28,0,0,0-2.19.09,10,10,0,0,0,1.7.09c-3.93,1.46-3.4,6.42-3.4,6.42-.32,10.5,7.78,10.81,7.78,10.81l50.62.1a28.33,28.33,0,0,0,14.35-3.88c0,2.15,0,3.36.05,3.36h0l35.36.07c.07,0,.16-16.08.2-35.91s0-35.92-.07-35.92Z"></path></g><path d="M361.06,402.05l1.66,4.21-.09,48.4h0A28.44,28.44,0,0,1,342,463.55l-50.62-.1s-8.1-.31-7.78-10.81c0,0-.59-5.4,3.91-6.59,0,0-10.19-2.12-10.48-9.62S282.1,428,282.1,428s-9.3-.62-9.89-9,4.22-9.29,4.22-9.29-10.8-.62-9.88-10.22,10.22-9,10.22-9l36,.06,31.55.05A18.06,18.06,0,0,1,361.06,402.05Z" style="fill:#43A161"></path><path d="M350.24,391.66s-12.5-7.74-18.2-17.6a53,53,0,0,1-5.53-15.83c0-.43,0-4.23-.08-7.34a4.76,4.76,0,0,0-4.62-4.69c-5.36-.19-13.88,4.42-14.89,14.32-1.5,14.77,3.72,23.7,4.62,28l.9,4.25Z" style="fill:#43A161"></path><rect x="356.42" y="391.24" width="35.35" height="71.83" transform="translate(747.41 854.99) rotate(-179.89)" style="fill:#43A161"></rect><path d="M356.35,463c-.07,0-.11-16.08-.07-35.91s.13-35.91.21-35.91.1,16.07.07,35.91S356.43,463,356.35,463Z" style="fill:#263238"></path><path d="M391.71,463.1c-.08,0-.11-16.08-.08-35.91s.13-35.92.21-35.92.11,16.08.07,35.92S391.78,463.1,391.71,463.1Z" style="fill:#263238"></path><path d="M368.94,407.67a6.62,6.62,0,1,0,6.62-6.6A6.62,6.62,0,0,0,368.94,407.67Z" style="fill:#fff"></path><path d="M304.48,390.57c0-.08,3.86-.13,8.61-.12s8.61.08,8.61.15-3.85.13-8.61.13S304.48,390.65,304.48,390.57Z" style="fill:#263238"></path><path d="M281.38,428.38a51.71,51.71,0,0,1,5.5-.13,51.66,51.66,0,0,1,5.51.15c0,.07-2.47.13-5.51.12S281.38,428.45,281.38,428.38Z" style="fill:#263238"></path><path d="M275.74,409.55c0-.08,3.49-.13,7.81-.12s7.81.07,7.81.15-3.5.13-7.82.12S275.74,409.63,275.74,409.55Z" style="fill:#263238"></path><path d="M285.25,446.13c0-.07,3.5-.13,7.81-.12s7.81.07,7.81.15-3.49.13-7.81.13S285.25,446.21,285.25,446.13Z" style="fill:#263238"></path><g style="opacity:0.30000000000000004"><path d="M322.31,349.64a4.08,4.08,0,0,1,1.69,3.82,26.62,26.62,0,0,1-.94,4.28,14.91,14.91,0,0,0,1,9.49c.41.9.93,1.93.5,2.82-.61,1.26-2.48,1.07-3.75.49a14.08,14.08,0,0,1-8-12.75,9.86,9.86,0,0,1,2.13-6.23c1.45-1.71,3.86-3.51,7.37-1.92" style="fill:#fff"></path></g><g style="opacity:0.30000000000000004"><path d="M273.9,392.44a8.39,8.39,0,0,1,3.63-.45l21.46.45c2.34.05,6.6-.41,7.17,1.83h0a2.77,2.77,0,0,1-1,3.53,7.35,7.35,0,0,1-3.84,1c-2.81.19-5.63.18-8.45.16A106.35,106.35,0,0,1,276,398a7.45,7.45,0,0,1-2.41-.71,2.78,2.78,0,0,1-1.5-1.91A2.9,2.9,0,0,1,273.9,392.44Z" style="fill:#fff"></path></g><path d="M364.82,393.26c0-.08,4.94-.13,11-.12s11,.08,11,.16-4.93.13-11,.12S364.82,393.33,364.82,393.26Z" style="fill:#fff"></path><path d="M276.13,421.93s-.1-.12-.23-.37a6.65,6.65,0,0,1-.43-1.08,8.24,8.24,0,0,1-.33-1.71,9.68,9.68,0,0,1,.07-2.13,9.87,9.87,0,0,1,.57-2.05,8,8,0,0,1,.84-1.53,5.7,5.7,0,0,1,.74-.9,1.7,1.7,0,0,1,.32-.29s-.38.48-.9,1.3a9.2,9.2,0,0,0-.76,1.51,11,11,0,0,0-.54,2,10.54,10.54,0,0,0-.09,2.07,9.09,9.09,0,0,0,.27,1.68C275.9,421.36,276.17,421.91,276.13,421.93Z" style="fill:#fff"></path><path d="M270.93,403.73a2.44,2.44,0,0,1-.84-.76,5.33,5.33,0,0,1-1.1-2.5,5.39,5.39,0,0,1,.24-2.72,2.45,2.45,0,0,1,.56-1s-.18.39-.37,1a5.92,5.92,0,0,0,.82,5C270.63,403.41,271,403.69,270.93,403.73Z" style="fill:#fff"></path><path d="M282.33,441.4a2.75,2.75,0,0,1-1.11-.68,4.7,4.7,0,0,1-1-5.83,2.84,2.84,0,0,1,.82-1s-.31.4-.65,1.1a4.83,4.83,0,0,0,.94,5.6C281.9,441.13,282.35,441.36,282.33,441.4Z" style="fill:#fff"></path><path d="M289.49,458.47a2.75,2.75,0,0,1-.83-.82,6.14,6.14,0,0,1-1-5.37,2.61,2.61,0,0,1,.48-1.06s-.14.42-.29,1.11a6.65,6.65,0,0,0,0,2.7,6.76,6.76,0,0,0,1,2.51C289.21,458.12,289.52,458.43,289.49,458.47Z" style="fill:#fff"></path><path d="M310.28,376.7a3.57,3.57,0,0,1-.38-.73,8.67,8.67,0,0,1-.39-.88c-.14-.35-.31-.75-.45-1.2a23.65,23.65,0,0,1-.87-3.22,27.1,27.1,0,0,1-.48-4.05,29.47,29.47,0,0,1,.18-4.08,23.12,23.12,0,0,1,.64-3.27c.1-.46.25-.86.36-1.22s.22-.67.32-.91a4.11,4.11,0,0,1,.33-.76,6.69,6.69,0,0,1-.23.79c-.08.25-.18.56-.27.92s-.23.77-.32,1.23a27.18,27.18,0,0,0-.58,3.25,29.15,29.15,0,0,0-.15,4,30.09,30.09,0,0,0,.45,4,28.65,28.65,0,0,0,.8,3.2c.13.45.29.85.41,1.2s.24.65.34.9A6.38,6.38,0,0,1,310.28,376.7Z" style="fill:#fff"></path></g><g id="freepik--Board--inject-53"><rect x="205.89" y="68.38" width="315.04" height="262.3" rx="16.01" style="fill:#fff"></rect><path d="M504.92,331.18h-283a16.54,16.54,0,0,1-16.52-16.51V84.39a16.54,16.54,0,0,1,16.52-16.51h283a16.54,16.54,0,0,1,16.52,16.51V314.67A16.54,16.54,0,0,1,504.92,331.18Zm-283-262.3a15.53,15.53,0,0,0-15.52,15.51V314.67a15.53,15.53,0,0,0,15.52,15.51h283a15.53,15.53,0,0,0,15.52-15.51V84.39a15.53,15.53,0,0,0-15.52-15.51Z" style="fill:#263238"></path><rect x="255.76" y="263.32" width="6.66" height="46.13" style="fill:#43A161"></rect><rect x="243.14" y="297.92" width="6.66" height="11.53" style="fill:#43A161"></rect><rect x="267.28" y="286.39" width="6.66" height="23.07" style="fill:#43A161"></rect><rect x="278.61" y="272.96" width="6.66" height="36.5" style="fill:#43A161"></rect><rect x="291.67" y="299.7" width="6.66" height="9.76" style="fill:#43A161"></rect><path d="M500.54,298.72a1.63,1.63,0,0,1-.37-1.12,1.65,1.65,0,0,1,.37-1.12,1.22,1.22,0,0,1,1-.42,1.26,1.26,0,0,1,1,.42,1.88,1.88,0,0,1,0,2.24,1.32,1.32,0,0,1-1.95,0Zm1.48-.39a1.29,1.29,0,0,0,.18-.73,1.24,1.24,0,0,0-.18-.72.57.57,0,0,0-.51-.26.59.59,0,0,0-.5.26,1.2,1.2,0,0,0-.19.72,1.16,1.16,0,0,0,.19.72.56.56,0,0,0,.5.26A.58.58,0,0,0,502,298.33Zm2.87-2.22h.79l-3.85,5.64H501Zm-.66,5.27a1.65,1.65,0,0,1-.37-1.12,1.63,1.63,0,0,1,.37-1.12,1.32,1.32,0,0,1,1.95,0,1.63,1.63,0,0,1,.38,1.12,1.65,1.65,0,0,1-.38,1.12,1.34,1.34,0,0,1-1.95,0Zm1.48-.4a1.2,1.2,0,0,0,.19-.72,1.16,1.16,0,0,0-.19-.72.56.56,0,0,0-.5-.26.58.58,0,0,0-.51.25,1.22,1.22,0,0,0-.19.73,1.16,1.16,0,0,0,.19.72.62.62,0,0,0,1,0Z" style="fill:#43A161"></path><path d="M467.74,270.51h22a1,1,0,0,0,.74-1.74l-11-11.22a1,1,0,0,0-1.47,0l-11,11.22A1,1,0,0,0,467.74,270.51Z" style="fill:#ebebeb"></path><rect x="471.98" y="268.42" width="14.09" height="22.35" style="fill:#ebebeb"></rect><path d="M481.37,309.5v4.56h-14v-3.61l6.3-5.83a5.11,5.11,0,0,0,1.09-1.32,2.39,2.39,0,0,0,.27-1.07,1.24,1.24,0,0,0-.43-1,1.93,1.93,0,0,0-1.26-.36,2.86,2.86,0,0,0-2.56,1.62l-4.43-2.22a7.31,7.31,0,0,1,2.91-2.95,9.3,9.3,0,0,1,4.63-1.08,9.48,9.48,0,0,1,3.66.67,5.77,5.77,0,0,1,2.49,1.92,4.75,4.75,0,0,1,.9,2.86,6.22,6.22,0,0,1-.61,2.71,10.4,10.4,0,0,1-2.38,2.85l-2.49,2.26Z" style="fill:#43A161"></path><path d="M486.37,313.37a7.29,7.29,0,0,1-2.79-3.13,12.37,12.37,0,0,1,0-9.79,7.38,7.38,0,0,1,2.79-3.14,8.3,8.3,0,0,1,8.19,0,7.51,7.51,0,0,1,2.79,3.14,12.37,12.37,0,0,1,0,9.79,7.42,7.42,0,0,1-2.79,3.13,8.24,8.24,0,0,1-8.19,0Zm6.08-8q0-4.39-2-4.4t-2,4.4q0,4.41,2,4.41T492.45,305.34Z" style="fill:#43A161"></path><path d="M270.71,172.93a1.63,1.63,0,0,1-.37-1.12,1.65,1.65,0,0,1,.37-1.12,1.34,1.34,0,0,1,2,0,1.84,1.84,0,0,1,0,2.24,1.32,1.32,0,0,1-2,0Zm1.49-.39a1.29,1.29,0,0,0,.18-.73,1.24,1.24,0,0,0-.18-.72.62.62,0,0,0-.52-.26.61.61,0,0,0-.5.26,1.2,1.2,0,0,0-.19.72,1.16,1.16,0,0,0,.19.72.59.59,0,0,0,.5.26A.61.61,0,0,0,272.2,172.54Zm2.87-2.22h.78L272,176h-.79Zm-.66,5.27a1.65,1.65,0,0,1-.38-1.12,1.63,1.63,0,0,1,.38-1.12,1.23,1.23,0,0,1,1-.43,1.26,1.26,0,0,1,1,.43,1.63,1.63,0,0,1,.37,1.12,1.65,1.65,0,0,1-.37,1.12,1.26,1.26,0,0,1-1,.42A1.22,1.22,0,0,1,274.41,175.59Zm1.48-.4a1.28,1.28,0,0,0,.18-.72,1.24,1.24,0,0,0-.18-.72.64.64,0,0,0-1,0,1.29,1.29,0,0,0-.18.73,1.24,1.24,0,0,0,.18.72.6.6,0,0,0,.51.26A.62.62,0,0,0,275.89,175.19Z" style="fill:#43A161"></path><path d="M216.66,171.58h20.11a.94.94,0,0,0,.67-1.59l-10.06-10.27a.94.94,0,0,0-1.33,0L216,170A.94.94,0,0,0,216.66,171.58Z" style="fill:#ebebeb"></path><rect x="220.55" y="169.67" width="12.9" height="20.45" style="fill:#ebebeb"></rect><path d="M250.91,171.06v17.43H245v-13h-3v-4.43Z" style="fill:#43A161"></path><path d="M256.85,187.8a7.35,7.35,0,0,1-2.79-3.13,12.37,12.37,0,0,1,0-9.79,7.32,7.32,0,0,1,2.79-3.14,8.3,8.3,0,0,1,8.19,0,7.32,7.32,0,0,1,2.79,3.14,12.37,12.37,0,0,1,0,9.79A7.35,7.35,0,0,1,265,187.8a8.24,8.24,0,0,1-8.19,0Zm6.09-8c0-2.94-.67-4.4-2-4.4s-2,1.46-2,4.4.67,4.41,2,4.41S262.94,182.71,262.94,179.77Z" style="fill:#43A161"></path><path d="M302.05,309.68c0,.14-13.56.26-30.28.26s-30.29-.12-30.29-.26,13.56-.26,30.29-.26S302.05,309.54,302.05,309.68Z" style="fill:#263238"></path></g><g id="freepik--Tab--inject-53"><rect x="406.23" y="20.93" width="150.48" height="87.66" rx="8.14" style="fill:#fff"></rect><path d="M548.57,108.59s.41,0,1.19-.12a8.15,8.15,0,0,0,6.53-5.69,11.4,11.4,0,0,0,.33-3.58c0-1.29,0-2.67,0-4.13,0-11.71-.05-28.64-.08-49.54q0-7.85,0-16.42a8,8,0,0,0-4.12-7,8.24,8.24,0,0,0-4.22-1H543.6l-39.26,0-90,0a7.87,7.87,0,0,0-7.83,7c-.1,3.88,0,7.84-.05,11.71q0,11.67,0,23V85q0,5.43,0,10.75c0,1.76,0,3.54,0,5.26a7.88,7.88,0,0,0,6.12,7.12,10.18,10.18,0,0,0,2.48.2h31.56l34.21,0,49.54.08,13.47.05,3.5,0,1.19,0-1.19,0-3.5,0-13.47,0-49.54.08-34.21,0H415.1a11.37,11.37,0,0,1-2.59-.21,8.39,8.39,0,0,1-6.5-7.56c-.06-1.78,0-3.52,0-5.29V85q0-10.86,0-22.15v-23c0-3.89-.06-7.77,0-11.76a8.43,8.43,0,0,1,8.35-7.48l90,0,39.26,0h4.57a8.64,8.64,0,0,1,4.43,1,8.43,8.43,0,0,1,4.31,7.36q0,8.56,0,16.42c0,20.91-.06,37.83-.08,49.54,0,1.46,0,2.84,0,4.13a11.79,11.79,0,0,1-.36,3.63,8.2,8.2,0,0,1-3.4,4.48,8.06,8.06,0,0,1-3.28,1.21,5.77,5.77,0,0,1-.89.07Z" style="fill:#263238"></path><rect x="425.49" y="76.38" width="4.32" height="15.67" style="fill:#43A161"></rect><rect x="440.87" y="63.71" width="4.32" height="28.35" style="fill:#43A161"></rect><rect x="432.67" y="45.12" width="5.33" height="46.94" style="fill:#455a64"></rect><rect x="456.25" y="81.33" width="4.32" height="10.72" style="fill:#43A161"></rect><rect x="448.56" y="81.33" width="4.32" height="10.72" style="fill:#455a64"></rect><rect x="471.62" y="74.49" width="4.32" height="17.56" style="fill:#43A161"></rect><rect x="463.93" y="59.24" width="4.32" height="32.81" style="fill:#455a64"></rect><rect x="494.69" y="59.24" width="4.32" height="32.81" style="fill:#455a64"></rect><rect x="479.31" y="42.63" width="4.32" height="49.42" style="fill:#455a64"></rect><rect x="487" y="79.81" width="4.32" height="12.24" style="fill:#43A161"></rect><rect x="525.44" y="83.07" width="4.32" height="8.99" style="fill:#455a64"></rect><rect x="510.06" y="43.57" width="4.31" height="48.48" style="fill:#455a64"></rect><rect x="517.75" y="53.49" width="4.31" height="38.57" style="fill:#43A161"></rect><rect x="502.37" y="52.09" width="4.31" height="39.97" style="fill:#43A161"></rect><rect x="533.13" y="59.24" width="4.32" height="32.81" style="fill:#43A161"></rect><rect x="425.61" y="96.7" width="10.14" height="1.78" rx="0.61" style="fill:#e0e0e0"></rect><rect x="454.99" y="96.7" width="10.14" height="1.78" rx="0.61" style="fill:#e0e0e0"></rect><rect x="480.94" y="96.7" width="10.14" height="1.78" rx="0.61" style="fill:#e0e0e0"></rect><rect x="507.66" y="96.7" width="10.14" height="1.78" rx="0.61" style="fill:#e0e0e0"></rect><rect x="530.3" y="96.7" width="10.14" height="1.78" rx="0.61" style="fill:#e0e0e0"></rect><path d="M543,92.05c0,.15-27.78.26-62,.26s-62-.11-62-.26,27.77-.26,62-.26S543,91.91,543,92.05Z" style="fill:#263238"></path><circle cx="420.59" cy="33.32" r="2.37" style="fill:#e0e0e0"></circle><path d="M429.41,33.32A2.37,2.37,0,1,1,427,31,2.38,2.38,0,0,1,429.41,33.32Z" style="fill:#e0e0e0"></path><circle cx="433.41" cy="33.32" r="2.37" style="fill:#e0e0e0"></circle></g><g id="freepik--Speaker--inject-53"><path d="M305.67,224.39l14.74,30.72,7.7-2,49.24,42.23,14.53-27.45s-29.32-13.49-34.58-24.28-.32-10.47-.32-10.47l-12.18-18.9Z" style="fill:#263238"></path><path d="M324.72,183.44s15.45-4.54,40.16-22c18.07-12.8,32.19-28,38.48-35.31A8.42,8.42,0,0,1,415.14,125c5.44,4.59,12.93,16.09,21.09,45.32,14.4,51.53,4.07,61.33-.26,60.56s-32.83-10.2-51.58-11-47.33,4.78-47.33,4.78Z" style="fill:#e0e0e0"></path><path d="M324.72,183.44a5.45,5.45,0,0,0,.17.68c.14.51.33,1.19.58,2.07l2.33,8.07c2.1,7.14,5.13,17.49,8.95,30.52l.08.28.3-.05c8.13-1.48,17.43-2.92,27.7-3.91,5.14-.48,10.53-.85,16.12-.83a100.49,100.49,0,0,1,17.27,1.79c11.85,2.09,24.09,5.67,37,9.21l.63.14h.73a4.76,4.76,0,0,0,1.4-.32c.4-.24.81-.46,1.19-.73l1-1a13.8,13.8,0,0,0,2.42-4.71,36.82,36.82,0,0,0,1.49-10.45A110.89,110.89,0,0,0,442,192.88c-.3-1.58-.6-3.16-.89-4.73s-.71-3.12-1.05-4.67c-.67-3.11-1.46-6.17-2.28-9.2-1.55-6.07-3.34-12-5.27-17.74a147.64,147.64,0,0,0-6.6-16.61c-2.53-5.25-5.41-10.31-9.42-14.31A10.3,10.3,0,0,0,413,123.2a8.89,8.89,0,0,0-8.12,1A14.55,14.55,0,0,0,402,127c-3.46,3.94-6.95,7.64-10.42,11.12a226,226,0,0,1-20.39,18.16,218.2,218.2,0,0,1-33.21,21.3c-4.15,2.12-7.47,3.58-9.74,4.5-1.13.47-2,.8-2.59,1a9.5,9.5,0,0,0-.89.35,5.15,5.15,0,0,0,.92-.24c.6-.19,1.49-.49,2.64-.93,2.3-.86,5.65-2.26,9.84-4.33a211.28,211.28,0,0,0,33.48-21.07,222.06,222.06,0,0,0,20.55-18.14c3.5-3.47,7-7.18,10.49-11.12a13.86,13.86,0,0,1,2.74-2.68,8,8,0,0,1,3.52-1.29,8.1,8.1,0,0,1,7,2.68c3.85,3.86,6.7,8.85,9.19,14.05a146.14,146.14,0,0,1,6.53,16.51c1.91,5.73,3.7,11.62,5.24,17.68.81,3,1.59,6.06,2.26,9.15.34,1.55.72,3.09,1,4.65s.59,3.14.89,4.71a110.13,110.13,0,0,1,2.05,21.16,35.6,35.6,0,0,1-1.43,10.14,12.83,12.83,0,0,1-2.21,4.36l-.84.82c-.31.22-.64.4-1,.61a3.24,3.24,0,0,1-2.14.1c-12.83-3.49-25.2-7.08-37.09-9.14A100.75,100.75,0,0,0,381,219.37c-5.65,0-11,.4-16.21.9-10.3,1-19.6,2.53-27.75,4.08l.38.23-9.23-30.22c-1.09-3.5-1.93-6.21-2.51-8.09-.28-.89-.5-1.59-.67-2.1S324.73,183.45,324.72,183.44Z" style="fill:#263238"></path><polygon points="284.39 227.08 294.43 225.54 288.66 212.23 280.22 216.73 284.39 227.08" style="fill:#43A161"></polygon><path d="M287.32,210.88l4.49,10.37,2.45,5.66a15.67,15.67,0,0,0,20,8.52L355,224.27l-16.56-51.63-41.24,15.24A18.51,18.51,0,0,0,287.32,210.88Z" style="fill:#43A161"></path><g style="opacity:0.30000000000000004"><path d="M432.86,173.1c7.48,27.48,8.64,51.13,2.58,52.82s-17-19.22-24.49-46.7-8.64-51.12-2.59-52.81S425.38,145.63,432.86,173.1Z"></path></g><path d="M407.12,163.08s14.55-6.23,19,13.07-10,20.06-10,20.06A123.21,123.21,0,0,1,407.12,163.08Z" style="fill:#fff"></path><path d="M330.28,192.73c.08.27-6.91,2.85-15.62,5.78s-15.85,5.07-15.94,4.81,6.91-2.86,15.62-5.78S330.19,192.46,330.28,192.73Z" style="fill:#263238"></path><path d="M332.08,198.41c.08.27-6.91,2.86-15.62,5.78s-15.85,5.08-15.94,4.81,6.91-2.85,15.62-5.77S332,198.15,332.08,198.41Z" style="fill:#263238"></path><path d="M333.88,204.1c.08.27-6.91,2.85-15.62,5.78s-15.85,5.07-15.94,4.81,6.91-2.86,15.62-5.78S333.79,203.83,333.88,204.1Z" style="fill:#263238"></path><path d="M335.68,209.79c.08.26-6.91,2.85-15.62,5.77s-15.85,5.08-15.94,4.81,6.91-2.85,15.62-5.77S335.59,209.52,335.68,209.79Z" style="fill:#263238"></path><path d="M458.77,187.76c-.06.18,8.34,3.28,18.77,6.92s18.93,6.47,19,6.29-8.35-3.27-18.78-6.92S458.83,187.59,458.77,187.76Z" style="fill:#263238"></path><path d="M455.38,168c0,.18,13.44-1.69,29.95-4.18s29.89-4.66,29.87-4.84-13.44,1.69-30,4.18S455.35,167.85,455.38,168Z" style="fill:#263238"></path><path d="M452.39,147.79c.13.14,4.83-4.06,10.5-9.37s10.17-9.72,10.05-9.86-4.83,4.06-10.5,9.37S452.27,147.66,452.39,147.79Z" style="fill:#263238"></path><path d="M405.48,129.39a3.35,3.35,0,0,0-.15,1c-.06.78-.13,1.72-.21,2.87S405,136,405,137.81s-.09,3.79,0,6a151,151,0,0,0,1.2,15.65,166.62,166.62,0,0,0,3.68,18.88,165.51,165.51,0,0,0,6,18.25,147.46,147.46,0,0,0,6.59,14.21c1,2,2.06,3.72,2.93,5.25s1.69,2.83,2.38,3.87l1.58,2.39a3.48,3.48,0,0,0,.61.79,3.81,3.81,0,0,0-.43-.91c-.39-.67-.85-1.49-1.42-2.48s-1.39-2.39-2.21-4-1.83-3.3-2.78-5.3c-2-4-4.19-8.78-6.36-14.23a180.48,180.48,0,0,1-5.9-18.16,179.55,179.55,0,0,1-3.73-18.74c-.78-5.82-1.25-11.1-1.42-15.55-.15-2.22-.13-4.23-.17-6s0-3.29,0-4.54,0-2.09,0-2.87A4.42,4.42,0,0,0,405.48,129.39Z" style="fill:#263238"></path></g><g id="freepik--icon-4--inject-53"><path d="M425.24,355.54h0a35.36,35.36,0,0,1-35.36-35.36h0a35.37,35.37,0,0,1,35.36-35.37h0a35.37,35.37,0,0,1,35.37,35.37h0A35.36,35.36,0,0,1,425.24,355.54Z" style="fill:#43A161"></path><path d="M409.23,332.55a18.63,18.63,0,0,0,10.07,2.95c12.2,0,19.09-10.3,18.68-19.54a13.46,13.46,0,0,0,3.28-3.41,13,13,0,0,1-3.78,1,6.56,6.56,0,0,0,2.89-3.64,13.09,13.09,0,0,1-4.17,1.6,6.58,6.58,0,0,0-11.2,6,18.65,18.65,0,0,1-13.54-6.86,6.58,6.58,0,0,0,2,8.77,6.5,6.5,0,0,1-3-.82,6.57,6.57,0,0,0,5.27,6.52,6.58,6.58,0,0,1-3,.11,6.58,6.58,0,0,0,6.14,4.57A13.24,13.24,0,0,1,409.23,332.55Z" style="fill:#fff"></path><rect x="416.68" y="258.4" width="1" height="33.03" transform="translate(-60.69 129.12) rotate(-16.42)" style="fill:#43A161"></rect><path d="M415.79,258.38a3.28,3.28,0,1,1-3.28-3.28A3.28,3.28,0,0,1,415.79,258.38Z" style="fill:#43A161"></path></g><g id="freepik--icon-3--inject-53"><path d="M540.37,257.26h0A35.36,35.36,0,0,1,505,221.89h0a35.36,35.36,0,0,1,35.36-35.36h0a35.36,35.36,0,0,1,35.37,35.36h0A35.36,35.36,0,0,1,540.37,257.26Z" style="fill:#43A161"></path><path d="M557.14,214.61a12.57,12.57,0,0,0-.78-4.1,8.36,8.36,0,0,0-2-3,8.26,8.26,0,0,0-3-1.95,12.25,12.25,0,0,0-4.09-.78c-1.8-.08-2.38-.1-7-.1s-5.15,0-7,.1a12.2,12.2,0,0,0-4.09.78,8.69,8.69,0,0,0-4.94,4.93,12.57,12.57,0,0,0-.78,4.1c-.08,1.8-.1,2.37-.1,6.95s0,5.16.1,7a12.51,12.51,0,0,0,.78,4.09,8.61,8.61,0,0,0,4.94,4.93,12.17,12.17,0,0,0,4.09.79c1.8.08,2.37.1,7,.1s5.16,0,7-.1a12.22,12.22,0,0,0,4.09-.79,8.23,8.23,0,0,0,3-1.94,8.39,8.39,0,0,0,2-3,12.51,12.51,0,0,0,.78-4.09c.08-1.8.1-2.38.1-7S557.22,216.41,557.14,214.61Zm-3,13.77a9.22,9.22,0,0,1-.58,3.13,5.56,5.56,0,0,1-3.2,3.2,9.22,9.22,0,0,1-3.13.58c-1.78.08-2.31.1-6.82.1s-5,0-6.81-.1a9.16,9.16,0,0,1-3.13-.58,5.13,5.13,0,0,1-1.94-1.26,5.28,5.28,0,0,1-1.27-1.94,9.48,9.48,0,0,1-.58-3.13c-.08-1.78-.09-2.31-.09-6.82s0-5,.09-6.81a9.56,9.56,0,0,1,.58-3.14,5.7,5.7,0,0,1,3.21-3.2,9.42,9.42,0,0,1,3.13-.58c1.78-.08,2.31-.1,6.81-.1l6.82.1a9.48,9.48,0,0,1,3.13.58,5.28,5.28,0,0,1,1.94,1.27,5.17,5.17,0,0,1,1.26,1.93,9.3,9.3,0,0,1,.58,3.14c.08,1.78.1,2.31.1,6.81S554.18,226.6,554.1,228.38Z" style="fill:#fff"></path><path d="M540.37,212.9a8.66,8.66,0,1,0,8.66,8.66A8.66,8.66,0,0,0,540.37,212.9Zm0,14.29a5.63,5.63,0,1,1,5.63-5.63A5.63,5.63,0,0,1,540.37,227.19Z" style="fill:#fff"></path><path d="M549.38,210.53a2,2,0,1,0,2,2A2,2,0,0,0,549.38,210.53Z" style="fill:#fff"></path><rect x="485.26" y="199.43" width="1" height="46.93" transform="translate(256.04 705.46) rotate(-89.19)" style="fill:#43A161"></rect><path d="M464.27,219.94a3.29,3.29,0,1,1-4.6.65A3.3,3.3,0,0,1,464.27,219.94Z" style="fill:#43A161"></path></g><g id="freepik--icon-2--inject-53"><path d="M338.05,103.27h0A36.23,36.23,0,0,1,301.82,67h0a36.23,36.23,0,0,1,36.23-36.23h0A36.23,36.23,0,0,1,374.28,67h0A36.23,36.23,0,0,1,338.05,103.27Z" style="fill:#43A161"></path><path d="M333.42,83.23h7.4V64.69H346l.55-6.2h-5.71V55c0-1.46.29-2,1.71-2h4V46.47h-5.12c-5.51,0-8,2.43-8,7.07v5h-3.85v6.28h3.85Z" style="fill:#fff"></path><rect x="338.36" y="96.73" width="1" height="42.44" style="fill:#43A161"></rect><path d="M335.51,140a3.28,3.28,0,1,1,2.37,4A3.29,3.29,0,0,1,335.51,140Z" style="fill:#43A161"></path></g><g id="freepik--icon-1--inject-53"><path d="M253.27,161.45h0a35.36,35.36,0,0,1-35.36-35.36h0a35.36,35.36,0,0,1,35.36-35.36h0a35.37,35.37,0,0,1,35.37,35.36h0A35.37,35.37,0,0,1,253.27,161.45Z" style="fill:#43A161"></path><path d="M272.51,124.64a19.05,19.05,0,0,0-38.07-.34c0,.27,0,.55,0,.82a18.79,18.79,0,0,0,2.73,9.77l-2.13,6.3a2,2,0,0,0,2.56,2.61l6.69-2.13a19.06,19.06,0,0,0,28.24-16.55Zm-19,16.37a15.93,15.93,0,0,1-8.81-2.63l-6.15,2,2-5.9a15.71,15.71,0,0,1-3-9.32,13.24,13.24,0,0,1,.08-1.54,16,16,0,0,1,31.89.3c0,.42.05.83.05,1.24A16,16,0,0,1,253.47,141Z" style="fill:#fff;fill-rule:evenodd"></path><path d="M262.2,128.94c-.47-.23-2.77-1.35-3.19-1.51s-.74-.23-1.06.24-1.21,1.5-1.48,1.81-.54.34-1,.11a12.51,12.51,0,0,1-3.76-2.3,14,14,0,0,1-2.59-3.2c-.27-.46,0-.71.2-.94s.47-.55.71-.82l.17-.22a4,4,0,0,0,.29-.55.85.85,0,0,0,0-.81c-.12-.24-1.06-2.52-1.45-3.45s-.77-.76-1.05-.76-.58-.05-.89-.05a1.75,1.75,0,0,0-1.25.58,5.2,5.2,0,0,0-1.63,3.87,6,6,0,0,0,.24,1.58,10.4,10.4,0,0,0,1.67,3.21c.23.3,3.22,5.14,8,7s4.75,1.23,5.61,1.15a4.64,4.64,0,0,0,3.14-2.2,3.74,3.74,0,0,0,.28-2.2C263,129.29,262.66,129.17,262.2,128.94Z" style="fill:#fff;fill-rule:evenodd"></path><rect x="278.73" y="140.62" width="1" height="33.04" transform="translate(-34.72 221.15) rotate(-40.89)" style="fill:#43A161"></rect><path d="M287.34,171.62a3.28,3.28,0,1,1,4.35,1.62A3.29,3.29,0,0,1,287.34,171.62Z" style="fill:#43A161"></path></g></svg>
